<svg width="50" height="50" viewBox="0 0 50 50" fill="none" xmlns="http://www.w3.org/2000/svg">
<path d="M44.3066 21.9324C43.8917 21.9324 43.5171 21.6603 43.3826 21.2694C43.2556 20.9005 43.3701 20.4789 43.6627 20.2219C43.9816 19.9417 44.4611 19.9019 44.8218 20.1262C45.1588 20.3357 45.3378 20.7407 45.2665 21.1306C45.1829 21.5883 44.7728 21.9324 44.3066 21.9324V21.9324Z" fill="#67C2CA"/>
<path d="M29.3947 23.3451C25.5957 23.3451 22.5051 20.2542 22.5051 16.4548C22.5051 12.6555 25.5957 9.56445 29.3947 9.56445C33.1936 9.56445 36.2842 12.6555 36.2842 16.4548C36.2843 20.2542 33.1936 23.3451 29.3947 23.3451ZM29.3947 11.5176C26.6727 11.5176 24.4582 13.7324 24.4582 16.4548C24.4582 19.1771 26.6727 21.392 29.3947 21.392C32.1166 21.392 34.3311 19.1771 34.3311 16.4548C34.3312 13.7324 32.1166 11.5176 29.3947 11.5176V11.5176Z" fill="#67C2CA"/>
<path d="M43.7992 24.5978C43.2899 24.4198 42.7331 24.6888 42.5555 25.1979C41.8616 27.1862 40.7482 28.9563 39.2466 30.4589C38.7269 30.9786 38.1704 31.4546 37.5823 31.8831V27.5C37.5823 25.8744 36.2599 24.5519 34.6345 24.5519H24.1547C22.5292 24.5519 21.2068 25.8744 21.2068 27.5V31.9C20.6146 31.4695 20.0546 30.9913 19.5324 30.469C14.0999 25.0358 14.1045 16.1909 19.5427 10.7521C22.1771 8.11738 25.6786 6.66533 29.4023 6.66357H29.4091C33.1298 6.66357 36.6269 8.11182 39.2566 10.7419C40.7676 12.253 41.884 14.0363 42.5749 16.0422C42.7506 16.5521 43.3063 16.8231 43.8162 16.6476C44.3262 16.4719 44.5972 15.9161 44.4216 15.4063C43.6333 13.1176 42.3603 11.0836 40.6378 9.36094C37.639 6.36172 33.652 4.71045 29.4091 4.71045H29.4014C25.1563 4.7125 21.1645 6.36768 18.1614 9.37109C11.9619 15.5714 11.9573 25.6554 18.1512 31.85C19.2119 32.9109 20.4099 33.813 21.7115 34.5312C21.7118 34.5314 21.7121 34.5315 21.7124 34.5316C24.0475 35.8196 26.6982 36.5002 29.3799 36.5002H29.3954C32.082 36.4976 34.7384 35.8117 37.0773 34.5168C37.0776 34.5166 37.0779 34.5165 37.0782 34.5163C38.3742 33.7996 39.5684 32.8991 40.6277 31.8396C42.3389 30.1273 43.6079 28.1093 44.3993 25.8413C44.5771 25.3323 44.3084 24.7755 43.7992 24.5978V24.5978ZM23.16 33.086V27.5001C23.16 26.9515 23.6062 26.5051 24.1547 26.5051H34.6344C35.1829 26.5051 35.6291 26.9515 35.6291 27.5001V33.0728C31.7344 35.0212 27.0553 35.0262 23.16 33.086V33.086Z" fill="#67C2CA"/>
<path d="M29.393 0C18.0336 0 8.79207 9.24277 8.79207 20.6036C8.79207 25.0747 10.2237 29.2176 12.6522 32.5982L10.7791 34.4716L10.3131 34.0055C10.1299 33.8224 9.88152 33.7194 9.62244 33.7194C9.36345 33.7194 9.11501 33.8224 8.93181 34.0055L6.09207 36.8457C6.09177 36.846 6.09148 36.8464 6.09119 36.8467L1.46677 41.4717C-0.480786 43.4195 -0.480786 46.5889 1.46677 48.5367C2.41023 49.4804 3.66472 50 4.999 50C6.33328 50 7.58777 49.4803 8.53113 48.5367L13.1565 43.9107H13.1566L15.9964 41.0706C16.3776 40.6893 16.3776 40.071 15.9964 39.6896L15.5302 39.2234L17.4039 37.3495C20.7835 39.7767 24.9243 41.2073 29.3931 41.2073C40.7526 41.2073 49.9942 31.9646 49.9942 20.6037C49.9942 9.24287 40.7525 0 29.393 0V0ZM7.14998 47.1558C6.57546 47.7304 5.8115 48.0469 4.999 48.0469C4.1864 48.0469 3.42244 47.7304 2.84792 47.1558C1.66169 45.9693 1.66169 44.0391 2.84792 42.8526L6.78269 38.9173L8.93162 41.0664L11.085 43.2201L7.14998 47.1558ZM12.466 41.8391L10.3171 39.6899L8.16365 37.5362L9.62244 36.0772L13.9248 40.3801L12.466 41.8391ZM14.1491 37.8422L13.155 36.8479L12.1599 35.8528L13.8736 34.139C14.491 34.8461 15.1557 35.5108 15.863 36.1281L14.1491 37.8422ZM29.393 39.2541C19.1105 39.2541 10.7451 30.8875 10.7451 20.6036C10.7452 10.3197 19.1106 1.95312 29.393 1.95312C39.6755 1.95312 48.041 10.3197 48.041 20.6036C48.041 30.8875 39.6756 39.2541 29.393 39.2541V39.2541Z" fill="#67C2CA"/>
</svg>
