<svg width="50" height="50" viewBox="0 0 50 50" fill="none" xmlns="http://www.w3.org/2000/svg">
<path d="M14.7674 40.8545C14.3542 40.8545 13.9751 40.582 13.8426 40.191C13.71 39.7998 13.8443 39.3535 14.173 39.1024C14.4889 38.8612 14.9281 38.8376 15.2692 39.0402C15.6189 39.2479 15.805 39.6699 15.7244 40.0683C15.6333 40.5186 15.2278 40.8545 14.7674 40.8545V40.8545Z" fill="#0869c9"/>
<path d="M35.2322 40.8544C34.8183 40.8544 34.4411 40.5821 34.3083 40.191C34.1756 39.8004 34.3093 39.3534 34.6378 39.1024C34.9534 38.8612 35.3932 38.8376 35.734 39.0402C36.0842 39.2483 36.2703 39.669 36.1902 40.0683C36.0999 40.5185 35.6918 40.8544 35.2322 40.8544V40.8544Z" fill="#0869c9"/>
<path d="M30.8392 40.854H19.1606C18.6213 40.854 18.1841 40.4167 18.1841 39.8774C18.1841 39.3382 18.6213 38.9009 19.1606 38.9009H30.8392C31.3784 38.9009 31.8157 39.3382 31.8157 39.8774C31.8157 40.4167 31.3784 40.854 30.8392 40.854Z" fill="#0869c9"/>
<path d="M25.0001 36.913C24.8012 36.913 24.6022 36.8523 24.4323 36.7311C24.2843 36.6253 20.7673 34.0969 17.1984 30.2019C15.0887 27.8992 13.4041 25.597 12.1913 23.3591C10.6445 20.5049 9.86035 17.7396 9.86035 15.1398C9.86035 6.7917 16.6521 0 25.0001 0C33.3481 0 40.1398 6.7917 40.1398 15.1397C40.1398 19.7862 37.6713 24.8435 32.8025 30.171C29.2346 34.0751 25.7187 36.6225 25.5707 36.7289C25.4004 36.8516 25.2002 36.913 25.0001 36.913V36.913ZM25.0001 1.95312C17.729 1.95312 11.8135 7.86865 11.8135 15.1397C11.8135 23.9978 22.3993 32.7088 24.998 34.7132C27.5953 32.6967 38.1868 23.9318 38.1868 15.1397C38.1867 7.86865 32.2712 1.95312 25.0001 1.95312V1.95312Z" fill="#0869c9"/>
<path d="M25.0002 4.20459C19.1141 4.20459 14.3254 8.99316 14.3254 14.8793C14.3254 18.6815 16.373 22.2259 19.6691 24.1292C21.2833 25.0612 23.1266 25.5539 25.0002 25.5539C26.8737 25.5539 28.7172 25.0612 30.3312 24.1292C33.6273 22.2259 35.6749 18.6815 35.6749 14.8793C35.6749 8.99316 30.8862 4.20459 25.0002 4.20459V4.20459ZM28.8663 22.699C27.6708 23.2903 26.3454 23.6006 25.0002 23.6006C23.6551 23.6006 22.3296 23.2902 21.134 22.6989V20.6439C21.134 20.4524 21.2898 20.2967 21.4813 20.2967H28.519C28.7105 20.2967 28.8663 20.4524 28.8663 20.6439V22.699ZM30.8194 21.3735V20.644C30.8194 19.3757 29.7875 18.3436 28.519 18.3436H21.4813C20.2129 18.3436 19.1809 19.3756 19.1809 20.644V21.3735C17.359 19.7354 16.2786 17.3753 16.2786 14.8792C16.2786 10.0701 20.191 6.15762 25.0002 6.15762C29.8093 6.15762 33.7217 10.0701 33.7217 14.8792C33.7217 17.3753 32.6413 19.7354 30.8194 21.3735V21.3735Z" fill="#0869c9"/>
<path d="M25.0001 7.8374C22.272 7.8374 20.0525 10.0569 20.0525 12.7851C20.0525 15.5132 22.272 17.7326 25.0001 17.7326C27.7283 17.7326 29.9478 15.5132 29.9478 12.7851C29.9478 10.0568 27.7283 7.8374 25.0001 7.8374V7.8374ZM25.0001 15.7795C23.349 15.7795 22.0056 14.4361 22.0056 12.7851C22.0056 11.1339 23.349 9.79053 25.0001 9.79053C26.6513 9.79053 27.9947 11.1339 27.9947 12.7851C27.9947 14.4361 26.6513 15.7795 25.0001 15.7795Z" fill="#0869c9"/>
<path d="M7.3 40.8195C3.90235 40.8195 1.13818 38.0554 1.13818 34.6578C1.13818 31.2603 3.90235 28.4961 7.3 28.4961C10.6976 28.4961 13.4617 31.2603 13.4617 34.6578C13.4617 38.0555 10.6976 40.8195 7.3 40.8195V40.8195ZM7.3 30.4493C4.9793 30.4493 3.09131 32.3373 3.09131 34.6579C3.09131 36.9785 4.9793 38.8665 7.3 38.8665C9.62061 38.8665 11.5086 36.9785 11.5086 34.6579C11.5086 32.3373 9.62061 30.4493 7.3 30.4493V30.4493Z" fill="#0869c9"/>
<path d="M13.6235 49.9996H0.976562C0.437207 49.9996 0 49.5623 0 49.023V44.5372C0 43.0455 1.21357 41.832 2.70518 41.832H11.8949C13.3865 41.832 14.6001 43.0456 14.6001 44.5372V49.023C14.6001 49.5623 14.1628 49.9996 13.6235 49.9996ZM1.95312 48.0465H12.647V44.5372C12.647 44.1226 12.3096 43.7852 11.8949 43.7852H2.70518C2.29053 43.7852 1.95312 44.1226 1.95312 44.5372V48.0465Z" fill="#0869c9"/>
<path d="M42.6999 40.8195C39.3022 40.8195 36.5381 38.0554 36.5381 34.6578C36.5381 31.2603 39.3022 28.4961 42.6999 28.4961C46.0975 28.4961 48.8616 31.2603 48.8616 34.6578C48.8616 38.0555 46.0975 40.8195 42.6999 40.8195ZM42.6999 30.4493C40.3792 30.4493 38.4912 32.3373 38.4912 34.6579C38.4912 36.9785 40.3792 38.8665 42.6999 38.8665C45.0205 38.8665 46.9085 36.9785 46.9085 34.6579C46.9085 32.3373 45.0205 30.4493 42.6999 30.4493Z" fill="#0869c9"/>
<path d="M49.0234 49.9996H36.3765C35.8372 49.9996 35.3999 49.5623 35.3999 49.023V44.5372C35.3999 43.0455 36.6135 41.832 38.1051 41.832H47.2948C48.7864 41.832 50 43.0456 50 44.5372V49.023C50 49.5623 49.5627 49.9996 49.0234 49.9996ZM37.353 48.0465H48.0469V44.5372C48.0469 44.1226 47.7095 43.7852 47.2948 43.7852H38.1051C37.6904 43.7852 37.353 44.1226 37.353 44.5372V48.0465Z" fill="#0869c9"/>
</svg>
