<?xml version="1.0" standalone="no"?>
<!DOCTYPE svg PUBLIC "-//W3C//DTD SVG 20010904//EN"
 "http://www.w3.org/TR/2001/REC-SVG-20010904/DTD/svg10.dtd">
<svg version="1.0" xmlns="http://www.w3.org/2000/svg"
 width="786.000000pt" height="786.000000pt" viewBox="0 0 786.000000 786.000000"
 preserveAspectRatio="xMidYMid meet">

<g transform="translate(0.000000,786.000000) scale(0.100000,-0.100000)"
fill="#000000" stroke="none">
<path d="M0 7835 l0 -25 3930 0 3930 0 0 25 0 25 -3930 0 -3930 0 0 -25z"/>
<path d="M3440 7504 c-81 -6 -237 -24 -300 -34 -146 -25 -294 -56 -330 -69
-14 -5 -45 -14 -70 -21 -75 -21 -202 -61 -250 -80 -142 -55 -195 -78 -290
-125 -266 -130 -519 -294 -725 -469 -121 -102 -326 -306 -394 -393 -23 -28
-45 -53 -50 -55 -4 -2 -38 -43 -74 -93 -37 -49 -70 -94 -75 -100 -21 -27 -142
-214 -142 -219 0 -3 -18 -35 -40 -71 -22 -36 -40 -68 -40 -72 0 -3 -6 -14 -13
-22 -21 -25 -157 -321 -157 -340 0 -6 -7 -27 -16 -48 -9 -21 -20 -47 -24 -58
-4 -11 -12 -31 -18 -45 -10 -24 -36 -109 -68 -230 -59 -217 -89 -414 -105
-692 -21 -352 13 -712 100 -1048 28 -110 91 -309 112 -355 10 -22 34 -80 54
-130 109 -266 304 -588 504 -829 165 -199 409 -436 575 -558 28 -21 56 -42 63
-48 7 -5 16 -10 21 -10 5 0 15 -7 22 -15 7 -8 16 -15 21 -15 5 0 -5 13 -23 30
l-33 29 145 1 c80 1 197 6 260 11 344 29 453 39 525 48 44 6 112 13 150 16
151 11 196 25 253 79 27 26 47 55 53 81 6 22 17 56 25 75 16 41 33 134 44 240
9 81 22 132 50 195 21 45 60 197 60 231 0 13 4 25 9 28 5 3 11 25 15 48 3 24
8 57 10 73 3 17 10 78 15 138 6 59 14 113 18 120 11 17 31 92 44 162 12 68 21
115 44 230 9 44 22 120 28 169 11 85 13 90 42 102 43 19 50 17 91 -18 l36 -32
43 47 c46 51 64 57 86 30 35 -42 42 -72 70 -273 6 -41 14 -79 19 -85 7 -9 26
-192 23 -225 -1 -8 4 -23 10 -35 6 -11 12 -58 13 -105 3 -96 19 -224 34 -258
6 -13 10 -78 10 -145 0 -103 4 -129 22 -167 33 -71 50 -147 58 -258 5 -85 10
-106 28 -125 13 -14 22 -36 22 -55 0 -43 28 -110 49 -117 9 -3 25 -18 34 -35
10 -16 29 -33 43 -36 13 -3 24 -10 24 -15 0 -4 19 -14 43 -21 23 -6 45 -16 48
-20 3 -5 64 -13 135 -18 122 -9 229 -20 529 -55 72 -9 262 -19 423 -24 164 -4
297 -12 302 -17 7 -7 -11 -24 -50 -48 -33 -21 -58 -41 -56 -43 4 -5 138 80
162 102 6 5 32 26 58 45 26 19 64 50 84 67 34 30 35 33 14 33 -12 0 -25 -7
-28 -15 -4 -8 -11 -15 -17 -15 -6 0 -19 -8 -29 -17 -16 -14 -21 -15 -28 -4
-12 21 -58 23 -70 3 -8 -15 -9 -14 -10 6 0 13 -4 21 -10 17 -5 -3 -6 -13 -3
-22 5 -13 1 -15 -23 -9 -71 15 -134 18 -148 7 -19 -16 -56 -5 -74 20 -14 20
-47 25 -57 9 -10 -16 -37 -12 -59 9 -20 18 -24 18 -61 4 -58 -22 -95 -27 -95
-14 0 6 14 11 32 11 17 0 28 3 24 7 -4 4 -17 8 -29 8 -17 0 -21 5 -20 23 2 17
-2 22 -22 22 -25 0 -33 -14 -15 -25 17 -11 11 -22 -12 -22 -13 0 -31 -3 -41
-8 -10 -4 -28 -3 -40 2 -12 6 -59 8 -104 5 -90 -5 -99 1 -68 45 15 21 14 23
-9 38 -35 23 -52 10 -31 -22 9 -14 15 -27 12 -29 -8 -9 -37 8 -37 22 0 14 -33
36 -49 32 -11 -4 -13 6 -5 27 4 10 13 13 24 10 13 -4 20 1 25 15 5 17 15 20
69 20 35 0 76 4 92 10 16 5 47 11 69 14 77 8 106 18 115 41 6 15 20 25 46 29
20 4 44 11 53 16 32 17 112 39 125 34 8 -3 17 0 21 6 4 6 15 8 24 5 21 -6 91
21 91 35 0 6 7 10 16 10 9 0 18 9 21 20 8 29 64 50 142 54 95 5 150 22 161 50
7 18 21 26 69 35 33 7 63 16 66 21 4 6 16 10 28 10 29 0 151 84 183 126 25 32
26 40 20 96 -3 33 -11 67 -17 74 -17 21 -116 75 -229 125 -163 72 -290 152
-290 183 0 12 -10 16 -44 16 -49 0 -76 19 -76 52 0 12 -6 29 -14 37 -15 18
-39 128 -30 142 3 5 2 24 -1 43 -8 39 -34 55 -83 50 -22 -3 -31 0 -27 7 4 5
17 9 28 8 40 -3 45 1 40 24 -3 16 -2 18 5 9 7 -11 10 -10 16 3 3 9 6 18 6 19
0 2 -33 2 -72 0 -59 -2 -67 0 -40 7 18 5 32 16 32 25 0 15 41 36 62 31 6 -1
13 4 15 11 3 6 -4 13 -14 14 -10 0 -23 2 -30 2 -28 3 -24 16 5 16 26 0 33 5
38 27 7 24 8 25 20 8 10 -14 11 -22 2 -32 -13 -16 -11 -18 20 -28 21 -6 23 -5
13 13 -12 22 -6 32 20 32 12 0 16 -5 13 -14 -3 -7 2 -16 10 -19 23 -9 20 -30
-6 -46 -16 -10 -23 -11 -26 -2 -6 18 -32 -7 -32 -30 0 -22 8 -23 47 -8 15 6
37 15 48 19 11 5 54 21 95 37 75 29 96 53 52 60 -13 1 -36 10 -52 18 -16 8
-35 15 -42 15 -7 0 -35 12 -63 26 -59 30 -50 28 115 -22 106 -32 138 -37 215
-37 50 1 102 6 117 12 15 5 45 11 68 13 22 1 40 6 40 11 0 5 7 6 16 3 10 -4
22 1 29 11 11 15 15 15 29 4 13 -11 14 -17 5 -28 -16 -18 -5 -27 18 -15 10 6
41 21 68 34 28 12 53 24 58 26 16 8 6 -36 -14 -54 -16 -15 -24 -16 -39 -6 -24
14 -35 0 -21 -27 9 -16 5 -22 -26 -38 -39 -20 -66 -73 -37 -73 8 0 14 -4 14
-10 0 -5 -7 -10 -15 -10 -13 0 -15 -7 -9 -35 5 -28 3 -35 -10 -35 -9 0 -16 5
-16 10 0 6 -4 10 -10 10 -5 0 -10 -9 -10 -20 0 -17 -7 -20 -40 -20 -26 0 -39
-4 -37 -12 1 -7 -8 -14 -21 -16 -16 -2 -22 -8 -18 -18 3 -8 -1 -14 -8 -14 -7
0 -28 -3 -45 -6 -50 -10 -35 34 18 51 29 9 101 57 124 83 27 30 3 38 -46 16
-23 -10 -48 -24 -55 -31 -7 -7 -28 -15 -47 -19 -20 -3 -38 -10 -41 -16 -3 -5
-12 -4 -20 3 -11 9 -22 3 -54 -31 -38 -41 -60 -45 -60 -13 0 9 7 25 17 35 18
20 4 25 -15 6 -9 -9 -12 -9 -12 0 0 6 14 24 30 39 17 14 30 32 30 40 0 7 8 13
18 13 13 0 14 2 4 9 -10 6 -7 10 12 15 14 3 26 13 26 21 0 23 15 18 30 -10 12
-22 11 -27 -6 -40 -17 -13 -17 -14 -1 -15 9 0 17 5 17 10 0 6 7 10 15 10 8 0
15 5 15 10 0 6 -4 10 -10 10 -5 0 -10 7 -10 15 0 9 9 15 25 15 16 0 25 6 25
15 0 14 -11 19 -38 16 -7 -1 -15 4 -18 12 -6 17 -129 23 -139 7 -3 -5 -16 -10
-28 -10 -25 -1 -57 -22 -57 -39 0 -6 -9 -11 -19 -11 -10 0 -22 -7 -25 -15 -4
-11 -15 -14 -33 -12 -16 2 -38 -3 -50 -10 l-22 -15 20 -38 c15 -28 25 -37 37
-34 15 5 14 4 -1 -6 -25 -16 -12 -30 29 -30 19 0 34 -4 34 -10 0 -14 -39 -32
-56 -26 -13 5 -14 -3 -9 -47 7 -59 25 -93 55 -102 11 -4 43 -31 72 -61 28 -30
62 -57 75 -60 14 -4 29 -17 33 -30 10 -25 153 -99 214 -111 17 -3 43 -12 57
-19 15 -7 69 -28 120 -45 52 -18 101 -37 109 -44 8 -7 28 -15 43 -19 17 -4 31
-16 37 -31 6 -15 17 -25 29 -25 11 0 27 -10 35 -22 9 -12 17 -20 19 -17 11 13
65 96 70 109 4 8 30 56 58 105 47 84 62 115 125 253 42 91 123 312 149 407 9
33 21 71 25 85 5 14 12 45 15 70 3 25 10 54 14 65 14 33 45 211 61 345 5 41
14 149 20 240 17 259 -13 646 -69 885 -5 22 -15 68 -23 102 -7 34 -17 65 -21
69 -4 4 -7 14 -7 22 0 16 -55 201 -70 237 -5 11 -22 56 -38 100 -26 68 -61
147 -126 285 -12 26 -108 200 -129 235 -42 69 -101 158 -136 205 -22 30 -55
75 -73 100 -120 166 -375 429 -583 603 -11 9 -63 48 -115 86 -52 39 -99 73
-105 78 -30 24 -322 201 -350 212 -5 2 -57 26 -115 54 -58 27 -139 62 -180 78
-41 16 -84 34 -95 39 -91 40 -403 127 -545 151 -143 24 -178 30 -250 39 -79
10 -546 21 -640 14z m804 -263 c3 -4 -6 -6 -19 -3 -14 2 -25 6 -25 8 0 8 39 4
44 -5z m-618 -77 c14 -9 30 -26 36 -37 12 -23 38 -219 38 -291 0 -33 5 -53 16
-60 9 -7 16 -28 17 -49 1 -32 4 -37 24 -37 18 0 23 6 23 24 0 35 18 42 30 12
6 -16 16 -24 30 -23 19 1 24 13 21 47 -2 13 0 13 8 1 14 -21 41 49 41 106 0
36 -3 43 -17 41 -12 -2 -18 3 -18 17 0 13 8 21 23 23 12 2 22 9 23 15 0 7 3
23 6 37 2 14 10 61 17 105 l12 80 64 -3 c36 -2 69 -6 73 -9 5 -3 5 -38 2 -79
-6 -62 -5 -74 7 -74 11 0 19 20 28 63 6 34 13 67 15 74 4 12 105 11 125 -2 15
-9 12 -117 -5 -231 -13 -88 -20 -210 -8 -159 10 45 13 51 23 35 7 -11 11 -8
19 13 6 16 11 31 11 35 1 16 42 55 76 71 l36 18 -31 13 c-26 10 -30 16 -25 39
8 35 36 73 65 89 32 18 122 9 182 -17 83 -36 89 -81 37 -256 -12 -38 -28 -95
-35 -125 -8 -30 -17 -64 -21 -74 -6 -15 -4 -17 7 -11 8 5 7 1 -3 -12 -10 -11
-18 -25 -18 -31 0 -16 23 -15 38 0 8 8 42 13 89 13 65 0 77 3 87 20 6 11 18
31 27 45 9 14 38 66 64 115 26 50 59 107 72 127 26 43 25 43 138 -17 103 -55
104 -57 76 -110 -26 -50 -46 -56 -95 -30 -16 9 -30 14 -31 13 -7 -8 -94 -196
-100 -215 -4 -14 -2 -23 4 -23 6 0 11 -8 12 -17 0 -12 2 -13 6 -5 4 10 8 10
20 0 13 -11 18 -10 27 5 6 11 28 42 49 70 22 29 54 75 72 103 18 28 47 61 65
74 45 32 114 24 179 -20 90 -62 102 -117 49 -227 -18 -38 -39 -74 -46 -82 -7
-7 -31 -40 -53 -72 -41 -61 -80 -89 -122 -89 -45 0 -85 12 -106 31 -11 11 -25
19 -30 19 -5 0 -22 18 -38 40 -32 44 -53 57 -65 38 -5 -9 -8 -6 -8 9 0 12 5
25 10 28 6 3 10 12 10 19 0 13 -60 13 -80 1 -17 -10 0 -26 20 -20 10 3 21 1
25 -5 3 -5 -3 -10 -14 -10 -11 0 -23 -5 -27 -11 -4 -7 -20 -8 -41 -4 -38 7
-93 -10 -93 -29 0 -6 4 -18 10 -26 14 -22 -7 -40 -46 -40 -25 0 -34 -4 -35
-17 0 -14 -2 -13 -9 5 -12 28 -15 28 -81 -2 -34 -16 -80 -27 -124 -30 -79 -5
-195 -27 -195 -36 0 -11 -64 -77 -79 -82 -9 -2 -2 -10 17 -19 l31 -15 -25 -18
c-29 -22 -30 -34 -6 -75 18 -33 39 -40 48 -16 7 18 30 20 41 2 14 -22 96 -64
140 -72 24 -4 45 -11 49 -16 3 -5 20 -9 39 -9 19 0 37 -4 40 -10 3 -5 28 -10
54 -10 26 0 69 -7 95 -16 38 -13 45 -19 35 -30 -9 -11 -7 -14 10 -14 12 0 21
-6 21 -15 0 -8 6 -15 13 -15 6 0 39 -14 71 -30 67 -34 176 -70 212 -70 17 0
24 -6 24 -20 0 -12 10 -25 25 -32 13 -6 22 -14 20 -19 -3 -4 -1 -10 5 -14 6
-4 10 5 10 21 0 33 9 27 16 -11 3 -15 6 -33 7 -39 5 -25 37 -35 37 -11 0 8 7
15 15 15 8 0 15 -5 15 -11 0 -5 4 -8 9 -5 5 3 23 -10 40 -29 17 -19 36 -35 42
-35 6 0 9 -9 6 -19 -4 -16 -1 -18 16 -12 29 11 72 -14 87 -49 7 -17 15 -28 18
-26 9 9 62 -24 62 -39 0 -8 7 -15 16 -15 12 0 14 -9 12 -42 -2 -23 -9 -43 -16
-46 -7 -2 -11 2 -10 9 2 7 -10 15 -27 19 -16 4 -39 12 -50 18 -11 6 -41 19
-67 29 -27 10 -48 21 -48 26 0 4 -12 7 -27 7 -16 0 -39 7 -53 15 -56 32 -97
47 -127 47 -24 0 -33 5 -33 16 0 13 -3 13 -12 4 -10 -10 -10 -17 0 -32 17 -28
15 -32 -10 -25 -53 16 -97 41 -93 53 3 7 -4 12 -16 12 -16 0 -20 -5 -16 -19 8
-30 -20 -33 -49 -6 -24 22 -80 45 -111 45 -6 0 -27 14 -45 30 -20 19 -43 30
-61 30 -28 0 -29 -2 -23 -35 7 -38 1 -42 -28 -20 -25 19 -46 19 -46 1 0 -22
-19 -30 -35 -16 -16 13 -21 45 -6 35 5 -3 12 -1 15 4 4 5 -7 12 -24 16 -16 4
-30 13 -30 21 0 8 -10 19 -22 24 -52 21 -101 86 -78 100 16 10 -3 22 -23 14
-8 -3 -21 2 -28 11 -8 9 -23 25 -34 36 -11 11 -20 25 -20 31 0 6 -9 16 -20 22
-11 6 -24 17 -28 24 -4 6 -14 12 -22 12 -7 0 -32 18 -54 40 -22 22 -43 40 -47
40 -19 0 -74 47 -74 63 0 24 6 22 52 -17 22 -19 55 -42 74 -51 18 -8 36 -20
39 -25 3 -5 26 -12 51 -16 36 -5 49 -3 62 10 16 16 16 18 -3 31 -43 30 -65 50
-65 62 0 12 -55 35 -63 26 -3 -3 -12 -1 -19 3 -7 5 -16 9 -20 9 -5 0 -8 5 -9
10 -1 20 -32 45 -55 45 -13 0 -27 7 -31 15 -11 18 -73 32 -73 16 0 -6 9 -11
20 -11 13 0 20 -7 20 -20 0 -11 5 -20 11 -20 17 0 5 -45 -13 -48 -13 -2 -16 1
-12 12 7 18 -11 22 -21 5 -5 -6 -12 -4 -22 8 -13 17 -13 16 -4 -4 6 -12 14
-23 18 -25 10 -4 39 -52 59 -98 9 -19 27 -56 40 -81 l24 -47 -32 2 c-27 1 -34
-3 -36 -21 -2 -13 -8 -23 -13 -23 -11 0 -11 11 1 30 12 19 -5 30 -47 30 -30 0
-33 3 -33 30 0 29 -15 41 -22 19 -6 -18 -48 12 -48 33 0 10 -5 17 -11 15 -6
-1 -16 7 -22 17 -7 11 -22 31 -34 45 -13 14 -23 29 -23 33 0 5 -4 8 -9 8 -18
0 3 -50 35 -84 19 -20 34 -39 34 -42 0 -14 65 -94 76 -94 6 0 14 -7 18 -15 3
-9 21 -25 41 -36 19 -12 35 -26 35 -33 0 -21 59 -76 102 -95 24 -10 58 -34 75
-52 62 -65 124 -141 119 -146 -3 -3 -24 10 -48 29 -24 19 -51 38 -61 41 -10 4
-16 11 -13 16 8 12 -4 41 -16 41 -6 0 -7 -11 -4 -25 4 -14 5 -25 3 -25 -2 0
-19 21 -37 46 -20 26 -58 59 -90 76 -77 44 -149 100 -150 118 -1 10 -4 9 -10
-5 -7 -17 -9 -17 -9 -3 -1 10 -9 25 -19 35 -10 10 -29 33 -41 51 -12 17 -27
32 -33 32 -18 0 0 -62 26 -90 32 -34 66 -91 66 -111 0 -9 9 -19 20 -22 12 -3
20 -14 20 -26 0 -13 10 -26 25 -33 13 -6 22 -15 19 -20 -8 -13 6 -49 17 -43 5
4 6 -2 2 -11 -4 -12 -8 -14 -11 -6 -3 10 -7 10 -17 2 -8 -6 -11 -18 -8 -26 11
-28 -27 -26 -78 6 -28 17 -53 29 -56 26 -11 -10 33 -55 55 -56 12 0 22 -4 22
-9 0 -5 9 -13 21 -16 11 -4 18 -10 14 -13 -3 -3 11 -14 32 -24 34 -17 39 -17
49 -3 18 25 25 17 18 -20 -7 -41 10 -49 20 -9 4 15 14 33 22 41 13 14 14 12 8
-12 -5 -19 -1 -35 15 -55 11 -16 21 -34 21 -39 0 -6 10 -15 21 -22 18 -9 24
-8 31 5 8 14 11 14 33 0 15 -10 25 -12 30 -5 8 14 -3 31 -21 31 -8 0 -14 6
-14 13 0 11 -26 37 -74 70 -22 16 -29 98 -9 118 9 9 15 3 27 -25 9 -21 29 -45
50 -57 20 -12 43 -37 53 -60 10 -21 26 -41 36 -45 9 -3 15 -10 11 -15 -3 -5
-2 -9 3 -8 21 4 33 -2 33 -16 0 -8 8 -15 19 -15 26 0 38 -19 39 -65 1 -22 6
-41 12 -43 5 -2 10 -8 10 -12 0 -5 -13 -4 -30 1 -16 6 -30 15 -30 20 0 5 -7 9
-15 9 -8 0 -15 7 -15 15 0 9 7 18 15 21 23 9 19 44 -5 44 -13 0 -20 -7 -20
-19 0 -11 -4 -22 -9 -25 -10 -7 0 -60 17 -92 6 -11 8 -24 4 -30 -12 -17 -62
-45 -62 -35 0 6 -7 8 -15 5 -8 -3 -13 -13 -12 -22 4 -32 -18 -22 -23 10 l-6
33 -36 -37 c-20 -21 -43 -38 -50 -38 -7 0 -24 -7 -36 -16 -12 -8 -30 -14 -40
-12 -10 1 -29 -4 -43 -13 -34 -22 -77 -36 -127 -43 -24 -4 -61 -15 -82 -26
-22 -11 -49 -19 -62 -18 -13 0 -47 -8 -75 -20 -29 -11 -53 -17 -53 -14 0 4 19
19 43 34 65 43 119 98 113 114 -9 22 21 74 39 68 11 -5 13 6 10 63 -3 57 -7
68 -22 68 -11 0 -17 7 -15 18 2 10 -4 17 -13 17 -9 0 -13 5 -10 10 3 6 1 10
-4 10 -6 0 -11 -16 -11 -35 0 -24 -5 -35 -15 -35 -8 0 -15 7 -15 15 0 18 -12
19 -28 3 -7 -7 -28 -13 -47 -15 -38 -2 -39 1 -51 80 -4 30 -11 47 -20 47 -8 0
-14 4 -14 10 0 5 -11 12 -25 16 -25 6 -25 7 -9 25 24 27 15 30 -44 15 -54 -15
-92 -12 -92 8 -1 6 -9 0 -20 -13 -17 -19 -21 -21 -26 -7 -7 18 -30 21 -39 6
-4 -6 -1 -18 6 -26 9 -11 8 -18 -6 -34 -17 -19 -19 -19 -37 -4 -17 16 -19 16
-39 -2 -12 -10 -33 -36 -46 -58 -14 -21 -33 -41 -44 -43 -10 -3 -19 -11 -19
-18 0 -7 -7 -15 -15 -19 -9 -3 -15 -19 -15 -41 0 -19 -4 -35 -10 -35 -14 0
-31 36 -24 53 3 8 -2 17 -10 20 -10 4 -13 1 -9 -9 3 -7 1 -14 -5 -14 -6 0 -12
6 -14 12 -3 9 -16 4 -41 -15 -19 -15 -48 -27 -63 -27 -22 0 -25 -3 -16 -12 20
-20 14 -28 -22 -28 -23 0 -50 -11 -82 -35 -27 -20 -69 -45 -94 -56 -25 -11
-57 -27 -72 -35 -34 -18 -35 -18 -33 8 1 19 9 24 49 30 44 6 96 30 96 44 0 4
-11 4 -25 2 -35 -7 -33 20 3 32 15 5 41 17 57 26 51 28 99 52 118 58 22 7 22
23 -2 36 -14 7 -30 5 -63 -10 -72 -33 -88 -26 -38 17 52 45 107 76 120 68 6
-4 10 -1 10 5 0 6 20 20 44 30 41 19 96 80 96 108 0 7 5 12 11 12 6 0 8 -9 4
-20 -6 -19 9 -50 24 -50 3 0 6 15 6 33 0 23 6 35 22 42 23 10 33 48 33 121 -1
25 5 46 15 54 17 14 21 100 4 100 -6 0 -35 -21 -65 -47 -58 -51 -69 -84 -35
-105 23 -14 17 -38 -8 -31 -13 3 -25 -6 -40 -31 -13 -20 -28 -36 -36 -36 -7 0
-19 -10 -28 -22 -8 -13 -18 -20 -22 -16 -4 4 -2 14 5 23 10 12 9 15 -5 15 -23
0 -55 -28 -55 -49 0 -17 -88 -111 -104 -111 -9 0 -62 -48 -114 -102 -14 -16
-31 -28 -39 -28 -7 0 -13 -4 -13 -10 0 -5 -6 -10 -14 -10 -7 0 -29 -15 -49
-33 -20 -20 -56 -40 -84 -47 -26 -8 -50 -16 -53 -19 -10 -12 -168 -91 -181
-91 -7 0 7 15 31 33 25 17 53 40 62 50 10 9 25 17 33 17 8 0 15 5 15 10 0 6
-20 10 -44 10 -25 0 -48 -4 -51 -10 -3 -5 -10 -10 -16 -10 -13 0 -11 28 2 32
17 6 -7 48 -26 48 -8 0 -15 9 -15 20 0 27 -15 25 -79 -10 -35 -19 -57 -26 -61
-20 -7 12 -23 -3 -33 -32 -3 -9 -24 -26 -46 -37 -22 -12 -44 -28 -48 -36 -11
-18 -143 -86 -155 -79 -4 3 -8 9 -8 13 0 9 147 161 155 161 3 0 5 -7 5 -17 0
-14 2 -14 20 2 11 10 20 23 20 29 0 15 80 82 117 98 15 7 42 22 58 34 33 23
66 38 78 35 15 -3 48 20 42 30 -4 5 -17 9 -30 9 -14 0 -25 7 -27 18 -3 14 -9
11 -32 -16 -19 -21 -36 -30 -47 -27 -10 3 -19 -1 -23 -11 -4 -9 -9 -14 -13
-11 -3 4 0 14 7 22 11 14 10 17 -8 22 -11 3 -22 15 -24 27 -4 26 -39 25 -74
-3 -14 -11 -43 -22 -65 -26 -22 -4 -53 -13 -67 -21 -15 -8 -43 -17 -62 -20
-19 -4 -89 -35 -155 -69 -66 -34 -144 -68 -174 -75 -30 -7 -70 -22 -88 -33
-20 -11 -56 -21 -86 -22 -29 -1 -86 -14 -127 -29 -41 -14 -82 -26 -92 -26 -9
0 -19 -4 -22 -9 -8 -12 -135 -35 -144 -27 -9 10 19 26 46 26 13 0 21 4 18 8
-3 5 9 21 26 37 17 16 26 31 20 33 -19 6 8 62 30 62 13 0 18 6 16 19 -3 19 63
91 84 91 5 0 11 7 14 15 4 8 10 15 16 15 18 0 36 26 36 54 0 29 25 55 55 56 9
0 17 5 17 10 0 6 7 10 15 10 9 0 26 9 37 20 12 11 29 18 39 15 20 -7 65 9 85
30 9 8 28 15 42 15 15 0 37 7 48 15 12 8 52 17 90 21 38 4 77 11 87 16 9 5 49
10 87 11 64 2 70 4 70 23 0 17 12 25 63 42 36 12 68 17 76 12 9 -5 20 -2 29 6
7 8 22 14 33 14 11 0 32 9 48 21 15 11 43 21 62 21 50 1 70 14 63 42 -4 19 0
25 23 33 15 6 41 10 57 9 28 -3 89 14 102 27 4 4 16 7 26 7 11 0 16 5 13 10
-3 6 2 10 12 10 11 0 28 6 39 14 10 8 29 12 42 9 18 -4 25 -1 28 15 4 13 22
25 52 35 31 10 46 20 44 30 -2 16 17 23 103 36 102 17 170 34 186 47 9 8 19
11 23 7 4 -4 9 3 13 15 3 12 12 22 20 22 8 0 24 5 35 11 17 9 18 13 7 20 -12
8 -12 11 1 19 8 5 25 10 38 10 14 0 27 9 34 25 6 13 15 22 19 19 13 -8 11 20
-2 33 -8 8 -3 16 21 28 26 13 29 19 19 31 -9 11 -9 14 1 14 7 0 10 7 7 15 -4
8 -2 17 2 20 17 10 -2 44 -30 54 -32 11 -34 17 -19 55 9 26 50 50 101 60 27 6
52 46 43 70 -3 8 -25 17 -49 21 -25 3 -47 10 -50 14 -2 5 -28 11 -56 15 -79
11 -163 49 -116 54 6 1 32 6 57 11 25 6 65 10 90 11 49 0 124 22 113 33 -3 4
3 7 13 7 11 0 29 7 40 15 25 19 44 19 44 0 0 -24 29 -17 42 10 13 30 10 34
-26 37 -15 1 -41 14 -58 28 -29 24 -31 30 -35 115 -6 106 9 156 57 183 39 22
38 34 -3 31 -43 -4 -56 6 -53 39 2 15 4 37 5 49 1 14 15 30 44 47 35 21 55 26
115 26 51 0 80 -5 98 -16z m-340 -104 c11 -77 31 -174 66 -329 11 -48 11 -54
-6 -66 -20 -15 -119 -31 -134 -21 -5 3 -15 35 -22 70 l-12 64 -34 -5 c-67 -11
-132 38 -157 117 -7 22 -36 184 -37 202 0 10 106 32 123 25 9 -3 20 -39 32
-102 11 -62 22 -98 31 -102 8 -3 17 -4 19 -1 5 5 -20 178 -29 199 -10 23 34
38 99 36 l49 -2 12 -85z m-433 -38 c11 -9 25 -28 32 -42 19 -36 55 -141 55
-159 0 -8 7 -22 16 -32 10 -11 18 -44 21 -83 7 -76 -5 -101 -62 -136 -19 -12
-33 -25 -31 -28 5 -9 -100 -14 -139 -7 -43 7 -77 64 -119 199 -52 167 -54 209
-13 250 58 58 194 80 240 38z m952 -111 c-3 -6 -26 -11 -51 -11 -26 0 -43 4
-39 10 3 5 11 7 18 5 7 -3 26 -1 42 4 33 9 40 7 30 -8z m-1336 -39 c46 -49
171 -292 171 -333 0 -39 -54 -96 -99 -105 -26 -5 -29 -9 -21 -25 20 -36 11
-55 -39 -82 -27 -15 -53 -27 -57 -27 -5 0 -22 26 -39 58 -16 31 -74 139 -127
240 -54 101 -96 187 -93 193 8 12 73 44 108 53 15 3 27 11 27 16 0 18 64 50
99 50 27 0 42 -8 70 -38z m-325 -152 c33 -49 33 -63 0 -84 l-25 -17 21 -32
c11 -18 34 -54 51 -82 16 -27 48 -79 69 -114 22 -34 40 -71 40 -80 0 -11 -20
-29 -52 -46 l-51 -28 -21 25 c-12 15 -43 65 -71 113 -99 171 -100 173 -125
157 -11 -6 -26 -12 -34 -12 -17 0 -72 87 -61 98 10 10 219 140 226 141 4 1 18
-17 33 -39z m2846 -190 c0 -5 -4 -10 -10 -10 -5 0 -10 5 -10 10 0 6 5 10 10
10 6 0 10 -4 10 -10z m-3118 -37 c44 -37 77 -75 78 -89 0 -13 -83 -84 -99 -84
-5 0 -19 14 -31 30 -21 30 -60 41 -60 18 0 -7 22 -37 48 -65 26 -29 62 -71 80
-92 20 -24 39 -38 48 -34 17 6 18 18 1 35 -17 18 -49 69 -45 72 2 2 25 19 52
40 l50 37 38 -38 c75 -74 73 -161 -6 -230 -98 -85 -148 -80 -248 25 -36 38
-69 76 -74 85 -5 8 -24 31 -41 51 -40 43 -52 100 -30 142 17 31 80 95 112 112
37 21 91 14 127 -15z m3793 -18 c28 -24 65 -55 84 -67 48 -33 65 -67 57 -112
-8 -40 -112 -172 -209 -263 -48 -46 -61 -53 -96 -53 -34 0 -47 6 -80 39 -38
38 -40 39 -57 20 -9 -10 -23 -19 -31 -19 -18 0 -93 69 -93 86 0 8 35 55 78
105 42 50 84 101 92 112 27 39 183 197 194 197 6 0 34 -20 61 -45z m-808 -131
c-3 -3 -12 -4 -19 -1 -8 3 -5 6 6 6 11 1 17 -2 13 -5z m130 -26 c-3 -8 -6 -5
-6 6 -1 11 2 17 5 13 3 -3 4 -12 1 -19z m-3482 -47 c46 -21 79 -54 94 -92 7
-20 23 -31 59 -43 95 -32 178 -140 157 -205 -11 -34 -158 -221 -175 -221 -6 0
-156 123 -170 140 -3 3 -57 50 -120 104 -63 55 -118 104 -122 111 -10 16 143
196 179 212 38 16 51 16 98 -6z m4466 -90 c37 -23 95 -101 104 -141 3 -16 0
-42 -8 -61 -17 -39 -128 -149 -151 -149 -9 0 -16 -6 -16 -13 0 -7 -22 -30 -49
-50 -40 -31 -56 -37 -95 -37 -44 0 -51 4 -100 53 -83 85 -92 153 -29 222 31
34 156 141 197 169 47 31 102 34 147 7z m-1791 -401 c8 -14 8 -20 0 -20 -18 0
-50 20 -50 30 0 18 39 10 50 -10z m79 -78 c20 -20 45 -44 57 -52 11 -8 31 -29
44 -47 12 -17 36 -37 51 -44 38 -15 37 -32 0 -24 -17 3 -32 2 -36 -4 -3 -6
-13 -11 -22 -11 -11 0 -14 6 -10 23 5 18 -3 28 -39 52 -25 17 -55 47 -66 68
-12 20 -24 37 -28 37 -3 0 -6 9 -7 20 -3 30 16 24 56 -18z m-229 -17 c0 -8 -4
-15 -10 -15 -5 0 -10 7 -10 15 0 8 5 15 10 15 6 0 10 -7 10 -15z m128 -76 c-5
-4 -20 -4 -32 0 -21 6 -21 6 2 9 12 2 22 9 22 15 0 7 4 6 10 -3 6 -9 5 -17 -2
-21z m-1008 -147 c0 -13 -12 -22 -22 -16 -10 6 -1 24 13 24 5 0 9 -4 9 -8z
m1607 -61 c3 -9 12 -23 19 -31 17 -21 -7 -54 -33 -46 -18 6 -47 82 -37 97 7
12 45 -3 51 -20z m887 -59 c2 -4 -5 -9 -17 -9 -17 -2 -19 0 -7 7 18 12 18 12
24 2z m46 -9 c-1 -20 -16 -31 -30 -23 -12 8 -11 10 5 10 17 0 17 2 5 10 -13 8
-12 10 3 10 9 0 17 -3 17 -7z m-490 -43 c13 -9 13 -10 0 -10 -8 0 -22 5 -30
10 -13 9 -13 10 0 10 8 0 22 -5 30 -10z m-728 -68 c33 -21 54 -49 45 -59 -8
-7 -76 42 -82 59 -3 9 -22 23 -41 30 -18 6 -34 17 -34 24 0 12 31 -3 112 -54z
m159 55 c-1 -12 -15 -9 -19 4 -3 6 1 10 8 8 6 -3 11 -8 11 -12z m-501 -17 c0
-5 -2 -10 -4 -10 -3 0 -8 5 -11 10 -3 6 -1 10 4 10 6 0 11 -4 11 -10z m649
-81 l23 -30 -31 16 c-17 8 -31 22 -31 30 0 23 14 18 39 -16z m981 21 c0 -5
-10 -10 -22 -10 -19 0 -20 2 -8 10 19 13 30 13 30 0z m37 4 c-3 -3 -12 -4 -19
-1 -8 3 -5 6 6 6 11 1 17 -2 13 -5z m-1242 -24 c3 -5 2 -10 -4 -10 -5 0 -13 5
-16 10 -3 6 -2 10 4 10 5 0 13 -4 16 -10z m1152 4 c-3 -3 -12 -4 -19 -1 -8 3
-5 6 6 6 11 1 17 -2 13 -5z m-818 -75 c3 -11 -1 -10 -19 2 -13 9 -26 22 -29
30 -3 11 1 10 19 -2 13 -9 26 -22 29 -30z m-2789 21 c0 -5 -5 -10 -11 -10 -5
0 -7 5 -4 10 3 6 8 10 11 10 2 0 4 -4 4 -10z m3860 -6 c0 -9 9 -18 20 -21 11
-3 20 -9 20 -14 0 -12 -27 -11 -35 1 -3 6 -14 10 -24 10 -10 0 -21 9 -24 20
-4 16 0 20 19 20 15 0 24 -6 24 -16z m105 -3 c-3 -6 -14 -11 -23 -11 -13 0
-13 2 4 14 21 15 30 14 19 -3z m39 4 c3 -9 0 -15 -9 -15 -8 0 -15 7 -15 15 0
8 4 15 9 15 5 0 11 -7 15 -15z m-1644 -21 c0 -9 -31 -37 -36 -32 -9 9 8 38 22
38 8 0 14 -3 14 -6z m72 -48 c33 -36 16 -51 -18 -16 -27 27 -44 48 -44 55 0 9
43 -18 62 -39z m185 23 c21 -12 49 -30 62 -40 13 -11 30 -19 37 -19 8 0 14 -4
14 -10 0 -16 -47 -12 -54 5 -3 8 -16 15 -28 15 -24 1 -78 42 -78 60 0 14 4 13
47 -11z m203 11 c0 -5 -4 -10 -10 -10 -5 0 -10 5 -10 10 0 6 5 10 10 10 6 0
10 -4 10 -10z m1287 -36 c-3 -3 -12 -4 -19 -1 -8 3 -5 6 6 6 11 1 17 -2 13 -5z
m-3477 -42 c0 -13 -12 -22 -22 -16 -10 6 -1 24 13 24 5 0 9 -4 9 -8z m677 -18
c3 -9 -11 -39 -36 -76 -22 -32 -41 -68 -41 -79 0 -10 -4 -19 -10 -19 -5 0 -10
5 -10 11 0 5 -5 7 -11 4 -6 -4 -17 2 -25 14 -8 12 -21 21 -28 21 -21 0 -7 45
24 75 l27 26 15 -30 c13 -28 16 -29 35 -16 11 8 24 30 27 50 7 37 22 46 33 19z
m-2102 -74 c-3 -5 -17 -10 -31 -10 -13 0 -24 5 -24 10 0 6 14 10 31 10 17 0
28 -4 24 -10z m2255 -35 c0 -8 -7 -15 -16 -15 -14 0 -14 3 -4 15 7 8 14 15 16
15 2 0 4 -7 4 -15z m-360 -65 c0 -5 -2 -10 -4 -10 -3 0 -8 5 -11 10 -3 6 -1
10 4 10 6 0 11 -4 11 -10z m1227 -26 c2 -5 -3 -19 -12 -29 -14 -19 -14 -18
-15 13 0 31 18 42 27 16z m-1127 -13 c0 -10 -7 -24 -16 -32 -16 -13 -19 -12
-45 34 -8 15 -5 17 26 17 28 0 35 -4 35 -19z m1232 -16 c0 -5 -5 -11 -11 -13
-6 -2 -11 4 -11 13 0 9 5 15 11 13 6 -2 11 -8 11 -13z m-87 -45 c-3 -5 -10
-10 -16 -10 -5 0 -9 5 -9 10 0 6 7 10 16 10 8 0 12 -4 9 -10z m2605 -1010 c0
-5 -5 -10 -11 -10 -5 0 -7 5 -4 10 3 6 8 10 11 10 2 0 4 -4 4 -10z m-3700 -80
c0 -5 -8 -10 -17 -12 -24 -5 -64 3 -59 11 7 10 76 11 76 1z m128 -7 c-10 -2
-26 -2 -35 0 -10 3 -2 5 17 5 19 0 27 -2 18 -5z m3017 -4 c12 -19 -5 -23 -22
-6 -16 16 -16 17 -1 17 9 0 20 -5 23 -11z m560 1 c3 -5 -1 -10 -10 -10 -9 0
-13 5 -10 10 3 6 8 10 10 10 2 0 7 -4 10 -10z m-3169 -43 c3 -3 3 -10 -1 -16
-8 -14 -75 -14 -75 -1 0 6 -6 10 -14 10 -8 0 -18 5 -22 11 -5 9 9 10 50 7 31
-3 59 -7 62 -11z m-1211 -7 c-8 -13 -123 -11 -131 2 -3 4 27 8 66 8 47 0 69
-4 65 -10z m-867 -22 c-2 -18 -10 -23 -35 -25 -18 -1 -33 3 -33 8 0 5 9 9 19
9 10 0 21 7 25 15 9 23 28 18 24 -7z m672 12 c0 -5 -19 -10 -42 -10 -24 0 -38
4 -31 8 19 12 73 14 73 2z m1107 4 c-3 -3 -12 -4 -19 -1 -8 3 -5 6 6 6 11 1
17 -2 13 -5z m-132 -24 c-3 -5 -17 -10 -31 -10 -14 0 -22 4 -19 10 3 6 17 10
31 10 14 0 22 -4 19 -10z m280 -11 c0 -9 -14 -15 -42 -17 -26 -2 -43 1 -43 7
0 6 7 12 15 12 28 3 33 4 41 12 11 11 29 3 29 -14z m2425 13 c0 -4 -9 -13 -20
-20 -16 -10 -20 -10 -20 1 0 8 3 17 7 20 9 9 33 9 33 -1z m-4165 -12 c3 -5 -1
-10 -9 -10 -9 0 -16 5 -16 10 0 6 4 10 9 10 6 0 13 -4 16 -10z m309 -5 c-4 -8
-10 -15 -15 -15 -4 0 -6 7 -3 15 4 8 10 15 15 15 4 0 6 -7 3 -15z m1543 -36
c12 0 8 -4 -10 -11 -23 -8 -30 -6 -46 14 -19 23 -19 23 2 29 15 4 24 0 29 -13
4 -10 15 -18 25 -19z m2253 6 c-7 -9 -15 -13 -19 -10 -3 3 1 10 9 15 21 14 24
12 10 -5z m-4260 -15 c0 -5 -5 -10 -11 -10 -5 0 -7 5 -4 10 3 6 8 10 11 10 2
0 4 -4 4 -10z m393 -12 c-2 -5 -24 -8 -49 -8 -25 0 -43 3 -41 8 3 4 25 7 50 7
25 0 43 -3 40 -7z m44 -4 c-3 -3 -12 -4 -19 -1 -8 3 -5 6 6 6 11 1 17 -2 13
-5z m331 -6 c-6 -16 -36 -34 -44 -26 -3 4 -4 14 -1 23 7 17 51 21 45 3z m2492
-3 c23 -13 23 -14 4 -15 -11 0 -29 7 -40 15 -26 19 1 20 36 0z m835 5 c3 -5 1
-10 -4 -10 -6 0 -11 5 -11 10 0 6 2 10 4 10 3 0 8 -4 11 -10z m139 1 c3 -5 -1
-11 -9 -15 -8 -3 -15 -12 -15 -21 0 -8 -7 -15 -16 -15 -9 0 -18 -9 -21 -20 -3
-11 -28 -36 -55 -55 -40 -29 -55 -35 -79 -30 -18 4 -36 2 -44 -5 -14 -11 -35
-6 -35 8 0 4 18 15 40 25 22 10 38 22 36 26 -3 4 8 5 25 3 42 -6 36 16 -7 24
-31 6 -54 31 -54 60 0 15 22 0 30 -21 9 -24 30 -35 30 -15 0 6 9 10 20 10 11
0 28 4 38 9 76 38 107 47 116 32z m-3239 -11 c3 -5 -1 -10 -9 -10 -9 0 -16 5
-16 10 0 6 4 10 9 10 6 0 13 -4 16 -10z m-38 -6 c-3 -3 -12 -4 -19 -1 -8 3 -5
6 6 6 11 1 17 -2 13 -5z m2907 -15 c-3 -5 -10 -7 -15 -3 -5 3 -7 10 -3 15 3 5
10 7 15 3 5 -3 7 -10 3 -15z m-3174 -14 c-7 -9 -15 -13 -17 -11 -7 7 7 26 19
26 6 0 6 -6 -2 -15z m167 9 c-3 -3 -12 -4 -19 -1 -8 3 -5 6 6 6 11 1 17 -2 13
-5z m2490 -23 c12 -9 27 -28 34 -44 6 -15 19 -32 28 -36 9 -5 13 -13 9 -16 -9
-9 -98 42 -98 56 0 6 -10 24 -21 41 l-22 30 24 -7 c13 -4 34 -15 46 -24z m578
19 c3 -5 -3 -10 -14 -10 -12 0 -21 5 -21 10 0 6 6 10 14 10 8 0 18 -4 21 -10z
m1255 -17 c0 -12 -47 -53 -60 -53 -20 0 -6 34 20 47 29 15 40 16 40 6z m-4467
-43 c-5 -20 -15 -25 -26 -14 -8 8 15 44 24 38 4 -2 5 -13 2 -24z m3217 15 c0
-1 -11 -5 -25 -7 -16 -3 -25 -1 -25 7 0 8 9 10 25 7 14 -2 25 -6 25 -7z m422
-2 c9 -10 14 -29 13 -43 -2 -14 -4 -35 -4 -48 -1 -25 -21 -35 -90 -47 -34 -6
-42 -4 -39 6 3 8 2 26 -2 40 -10 34 8 65 50 89 44 24 53 24 72 3z m-522 -7 c0
-16 -18 -31 -27 -22 -8 8 5 36 17 36 5 0 10 -6 10 -14z m-154 -21 c-21 -16
-32 -13 -21 4 3 6 14 11 23 11 15 -1 15 -2 -2 -15z m-4385 -11 c10 -13 10 -17
-2 -25 -31 -20 -122 -49 -153 -49 -40 0 -96 -18 -96 -32 0 -5 -5 -6 -12 -2 -6
4 -64 8 -127 8 -150 1 -163 22 -26 41 22 4 54 10 70 15 17 5 73 16 125 25 52
9 113 20 135 24 61 13 71 12 86 -5z m259 6 c0 -13 -30 -13 -50 0 -11 7 -7 10
18 10 17 0 32 -4 32 -10z m-159 -15 c-41 -18 -42 -18 -35 0 4 9 19 15 38 15
l31 -1 -34 -14z m4229 -20 c-13 -16 -50 -21 -50 -7 0 15 13 22 38 22 21 0 22
-2 12 -15z m1537 -27 c-3 -8 -6 -5 -6 6 -1 11 2 17 5 13 3 -3 4 -12 1 -19z
m-4341 -2 c18 -14 18 -15 -9 -21 -15 -4 -27 -11 -27 -16 0 -5 -25 -9 -55 -9
-30 0 -55 5 -55 10 0 6 14 10 30 10 17 0 30 4 30 8 0 9 37 30 56 31 5 1 19 -5
30 -13z m3379 4 c-3 -5 -10 -10 -16 -10 -5 0 -9 5 -9 10 0 6 7 10 16 10 8 0
12 -4 9 -10z m-2942 -17 c19 -11 3 -23 -31 -23 -45 0 -56 8 -41 26 10 12 47
11 72 -3z m3403 5 c4 -7 -2 -18 -14 -26 -12 -8 -22 -21 -22 -28 0 -19 -14 -17
-34 5 -16 18 -16 20 11 40 32 23 49 26 59 9z m-3733 -15 c-13 -2 -33 -2 -45 0
-13 2 -3 4 22 4 25 0 35 -2 23 -4z m146 -12 c-8 -11 -19 -16 -32 -13 -18 5
-18 6 4 18 33 18 41 17 28 -5z m61 9 c13 -9 13 -10 0 -10 -8 0 -22 5 -30 10
-13 9 -13 10 0 10 8 0 22 -5 30 -10z m-817 -6 c53 -8 53 -24 1 -24 -19 0 -55
-5 -80 -11 -36 -9 -50 -9 -71 2 l-26 14 39 12 c46 14 75 15 137 7z m2417 -14
c0 -5 -6 -10 -14 -10 -8 0 -18 5 -21 10 -3 6 3 10 14 10 12 0 21 -4 21 -10z
m1490 -12 c0 -13 -23 -5 -28 10 -2 7 2 10 12 6 9 -3 16 -11 16 -16z m-4968 1
c57 -6 110 -13 118 -16 19 -7 -170 -40 -275 -47 -44 -4 -96 -3 -115 2 l-35 8
48 23 c26 13 50 21 53 18 3 -2 21 2 42 9 46 16 40 16 164 3z m3380 -10 c-30
-11 -28 -18 12 -34 32 -13 112 -15 132 -2 15 8 89 13 87 4 -2 -4 -3 -11 -3
-17 0 -5 -9 -10 -19 -10 -11 0 -26 -6 -33 -12 -7 -7 -30 -21 -50 -30 -21 -10
-38 -24 -38 -31 0 -10 -27 -18 -91 -27 -59 -9 -93 -18 -96 -27 -10 -25 17 -38
79 -38 59 0 62 -1 69 -28 7 -27 7 -28 -39 -26 -26 1 -54 0 -62 -1 -43 -8 -81
1 -88 21 -12 31 -74 49 -168 49 -84 0 -101 5 -84 25 11 13 -10 31 -55 50 l-20
8 20 5 c11 2 27 10 35 16 8 7 58 23 110 35 52 12 112 29 133 37 20 7 51 14 67
14 17 0 47 9 67 20 20 10 41 16 46 13 6 -3 1 -10 -11 -14z m2068 -23 c0 -2 -8
-3 -17 -2 -10 2 -19 13 -21 27 l-4 24 21 -22 c12 -12 21 -24 21 -27z m-3447
27 c-7 -2 -19 -2 -25 0 -7 3 -2 5 12 5 14 0 19 -2 13 -5z m107 -3 c0 -5 -4
-10 -9 -10 -6 0 -13 5 -16 10 -3 6 1 10 9 10 9 0 16 -4 16 -10z m-2540 -10
c-20 -13 -33 -13 -25 0 3 6 14 10 23 10 15 0 15 -2 2 -10z m5850 -60 c0 -5 -7
-10 -15 -10 -8 0 -15 5 -15 10 0 6 7 10 15 10 8 0 15 -4 15 -10z m-125 -30 c4
-6 16 -10 27 -8 32 5 33 -20 1 -33 -15 -6 -42 -18 -58 -26 -17 -8 -41 -13 -54
-12 l-23 4 26 28 c14 15 26 32 26 37 0 18 45 26 55 10z m-3975 -19 c0 -35 -10
-39 -58 -24 -30 9 -82 14 -147 12 -128 -2 -135 -2 -115 11 19 12 320 13 320 1z
m70 -1 c0 -5 -2 -10 -4 -10 -3 0 -8 5 -11 10 -3 6 -1 10 4 10 6 0 11 -4 11
-10z m2650 -16 c0 -8 -9 -14 -20 -14 -11 0 -20 2 -20 4 0 2 -3 11 -6 19 -4 11
1 13 20 10 14 -3 26 -12 26 -19z m126 5 c9 -16 -15 -36 -53 -44 -35 -7 -41 2
-23 36 12 21 64 27 76 8z m637 -19 c-3 -11 -9 -20 -14 -20 -10 0 -12 33 -3 43
12 12 22 -3 17 -23z m578 5 c-1 -15 -24 -12 -29 3 -3 9 2 13 12 10 10 -1 17
-7 17 -13z m-621 -16 c0 -29 -22 -47 -65 -53 -24 -4 -51 -14 -59 -21 -12 -12
-15 -12 -19 5 -6 22 45 60 81 60 11 0 24 5 27 10 8 13 35 13 35 -1z m-540 -14
c0 -9 -9 -15 -21 -15 -18 0 -19 2 -9 15 7 8 16 15 21 15 5 0 9 -7 9 -15z m960
11 c0 -3 -4 -8 -10 -11 -5 -3 -10 -1 -10 4 0 6 5 11 10 11 6 0 10 -2 10 -4z
m-1553 -22 c8 -24 -41 -63 -84 -68 -23 -3 -51 -10 -62 -15 -26 -15 -26 -15
-29 13 -1 20 8 28 71 54 74 32 97 36 104 16z m-2063 -95 c-3 -5 -10 -7 -15 -3
-5 3 -7 10 -3 15 3 5 10 7 15 3 5 -3 7 -10 3 -15z m2526 11 c0 -5 -6 -10 -14
-10 -8 0 -18 5 -21 10 -3 6 3 10 14 10 12 0 21 -4 21 -10z m230 -25 c0 -8 -4
-15 -10 -15 -5 0 -10 7 -10 15 0 8 5 15 10 15 6 0 10 -7 10 -15z m-2451 -1
c34 -7 37 -28 5 -31 -10 -1 -31 -5 -46 -9 -30 -7 -39 11 -16 34 14 14 15 14
57 6z m2406 -15 c-10 -15 -25 -10 -19 6 4 8 10 12 15 9 5 -3 7 -10 4 -15z
m-485 2 c0 -11 -26 -22 -34 -14 -12 12 -5 23 14 23 11 0 20 -4 20 -9z m380
-12 c0 -5 9 -9 21 -9 12 0 19 -5 16 -12 -2 -7 -14 -12 -26 -11 -11 2 -21 -2
-21 -7 0 -6 -8 -10 -17 -10 -13 0 -15 -2 -5 -8 9 -6 5 -12 -14 -20 -17 -8 -24
-18 -20 -28 7 -17 -4 -22 -59 -28 -34 -3 -40 -7 -38 -25 3 -21 2 -21 -19 -7
-32 23 -49 20 -75 -11 -22 -27 -23 -28 -38 -9 -17 22 -20 62 -5 71 5 3 15 15
21 26 10 19 7 20 -33 18 -49 -3 -68 5 -68 27 0 8 4 13 8 10 5 -3 55 1 112 9
57 7 109 11 115 9 7 -3 17 1 23 8 12 15 122 22 122 7z m-2663 -5 c-3 -3 -12
-4 -19 -1 -8 3 -5 6 6 6 11 1 17 -2 13 -5z m3209 -14 c9 0 12 -5 9 -10 -4 -6
-13 -9 -20 -8 -16 4 -18 -3 -9 -40 4 -15 16 -33 26 -41 13 -9 18 -21 14 -34
-3 -12 0 -27 6 -34 16 -19 5 -25 -26 -14 -14 6 -26 17 -26 26 0 8 -5 15 -11
15 -6 0 -8 9 -4 22 6 17 4 20 -10 14 -20 -7 -45 10 -45 31 0 24 52 84 67 78 8
-3 21 -5 29 -5z m-1076 -10 c0 -15 -65 -41 -122 -48 -75 -10 -128 -4 -128 14
0 8 6 15 13 15 6 1 28 3 47 5 19 2 60 7 90 12 76 13 100 14 100 2z m1430 0 c0
-5 -7 -10 -15 -10 -8 0 -15 5 -15 10 0 6 7 10 15 10 8 0 15 -4 15 -10z m-3509
-33 c-8 -8 -11 -7 -11 4 0 20 13 34 18 19 3 -7 -1 -17 -7 -23z m1799 -4 c0
-15 4 -14 -85 -15 -98 0 -104 1 -70 16 39 16 155 16 155 -1z m1860 13 c0 -3
-4 -8 -10 -11 -5 -3 -10 -1 -10 4 0 6 5 11 10 11 6 0 10 -2 10 -4z m-2180 -19
c52 -1 98 -6 102 -12 4 -5 33 -11 65 -13 51 -2 71 -4 121 -10 19 -3 14 -54 -9
-78 -11 -12 -28 -37 -38 -55 -19 -36 -60 -56 -47 -24 7 19 -10 39 -41 49 -15
5 -23 1 -27 -11 -5 -13 -9 -14 -15 -5 -11 18 -56 -7 -56 -32 0 -11 -6 -21 -12
-23 -8 -3 -13 4 -13 17 0 17 -4 21 -17 15 -24 -10 -136 -6 -147 5 -5 5 -1 7
11 4 23 -6 36 15 23 36 -6 9 -2 19 8 27 16 12 15 15 -7 33 -21 19 -26 19 -41
5 -9 -8 -20 -15 -23 -15 -11 0 -8 48 4 55 7 5 5 13 -5 24 -14 15 -12 16 27 14
23 -2 85 -4 137 -6z m1816 -24 c-10 -10 -19 5 -10 18 6 11 8 11 12 0 2 -7 1
-15 -2 -18z m-1324 -50 c-11 -27 -22 -38 -39 -39 -13 -1 -23 4 -23 11 0 6 -9
20 -20 30 -32 29 -24 35 39 35 l60 0 -17 -37z m318 23 c0 -11 -19 -15 -25 -6
-3 5 1 10 9 10 9 0 16 -2 16 -4z m-3687 -51 c7 -16 -8 -29 -23 -20 -15 9 -12
35 4 35 8 0 16 -7 19 -15z m2675 -5 c-7 -11 -16 -20 -19 -20 -4 0 -5 9 -2 20
3 11 12 20 19 20 12 0 12 -4 2 -20z m-2621 -25 c10 -22 9 -25 -8 -25 -10 0
-19 6 -19 14 0 8 -3 22 -6 30 -10 27 20 9 33 -19z m2708 13 c-15 -49 -29 -30
-16 20 1 1 6 2 12 2 6 0 8 -9 4 -22z m2015 -3 c0 -8 -6 -15 -14 -15 -20 0 -29
17 -14 23 22 9 28 7 28 -8z m-5060 -5 c0 -5 -7 -10 -16 -10 -8 0 -12 5 -9 10
3 6 10 10 16 10 5 0 9 -4 9 -10z m40 0 c0 -5 -7 -10 -15 -10 -8 0 -15 5 -15
10 0 6 7 10 15 10 8 0 15 -4 15 -10z m4022 -20 c15 0 18 -4 13 -22 -11 -37
-21 -41 -54 -24 -33 18 -41 36 -16 36 9 0 19 8 22 17 4 11 8 12 11 5 2 -7 13
-12 24 -12z m-4167 4 c12 -5 14 -9 4 -14 -15 -10 -41 -1 -33 11 6 11 8 11 29
3z m292 -21 c-4 9 -2 17 4 17 17 0 69 -43 69 -57 0 -8 12 -13 30 -13 17 0 30
-4 30 -10 0 -5 -9 -10 -20 -10 -11 0 -20 -4 -20 -8 0 -7 -63 -35 -64 -29 -1 1
-7 11 -14 22 -7 11 -15 28 -18 37 -8 23 -41 33 -60 17 -11 -9 -18 -9 -27 0 -9
9 -7 13 10 17 12 4 25 15 29 26 6 19 7 19 32 -4 19 -18 24 -19 19 -5z m413 17
c0 -7 20 -9 59 -4 39 4 72 2 97 -7 42 -14 48 -16 67 -18 6 -1 1 -10 -13 -21
-16 -13 -34 -19 -52 -16 -15 3 -31 0 -37 -8 -7 -8 -28 -13 -51 -12 -45 2 -61
13 -40 26 25 15 -2 30 -43 23 -31 -5 -36 -9 -32 -24 4 -11 2 -19 -4 -19 -6 0
-21 -10 -32 -21 -17 -17 -19 -23 -8 -30 8 -5 22 -7 32 -5 28 7 20 -2 -20 -22
-39 -19 -186 -70 -208 -72 -3 0 -30 -11 -61 -25 -69 -31 -100 -33 -67 -6 26
21 21 31 -16 31 -21 0 -23 2 -11 10 23 15 67 12 74 -5 8 -22 38 -7 31 16 -7
20 18 28 30 10 6 -11 24 -8 80 14 l40 15 -35 -1 c-54 -2 -55 -1 -27 27 20 20
36 26 72 26 34 1 49 6 56 20 5 10 6 18 2 19 -23 3 -61 -4 -88 -16 -45 -20 -85
-29 -85 -17 0 9 22 19 73 36 29 9 9 27 -26 24 -22 -2 -32 1 -32 11 0 21 41 33
55 15 16 -18 25 -18 44 1 8 8 22 12 30 9 13 -5 12 -9 -7 -24 l-22 -19 25 3
c14 2 38 8 53 15 16 6 33 11 38 11 5 0 9 7 9 15 0 9 6 12 15 9 8 -4 15 -1 15
5 0 6 5 11 10 11 6 0 10 -5 10 -10z m873 4 c6 -6 -16 -34 -27 -34 -3 0 -6 9
-6 20 0 19 20 27 33 14z m2667 -4 c12 -8 9 -10 -13 -10 -16 0 -26 4 -22 10 8
12 16 12 35 0z m-4080 -14 c0 -8 3 -21 6 -30 4 -11 0 -16 -11 -16 -10 0 -24
-8 -31 -17 -12 -17 -13 -17 -20 1 -5 14 -2 24 14 34 12 8 22 21 22 28 0 8 5
14 10 14 6 0 10 -6 10 -14z m1910 10 c0 -3 -4 -8 -10 -11 -5 -3 -10 -1 -10 4
0 6 5 11 10 11 6 0 10 -2 10 -4z m-2210 -21 c0 -8 -4 -15 -10 -15 -5 0 -10 7
-10 15 0 8 5 15 10 15 6 0 10 -7 10 -15z m1640 5 c0 -5 -2 -10 -4 -10 -3 0 -8
5 -11 10 -3 6 -1 10 4 10 6 0 11 -4 11 -10z m3505 0 c3 -5 1 -10 -4 -10 -6 0
-11 5 -11 10 0 6 2 10 4 10 3 0 8 -4 11 -10z m272 4 c-3 -3 -12 -4 -19 -1 -8
3 -5 6 6 6 11 1 17 -2 13 -5z m-2172 -42 c-8 -9 -35 20 -28 31 4 6 11 3 19 -8
8 -10 12 -21 9 -23z m295 -1 c0 -5 -7 -14 -15 -21 -12 -10 -15 -10 -15 2 0 8
3 18 7 21 9 10 23 9 23 -2z m1724 3 c19 -7 9 -34 -14 -34 -18 0 -34 23 -23 34
8 8 17 8 37 0z m119 -22 c18 -19 13 -32 -10 -32 -17 0 -43 24 -43 39 0 18 35
13 53 -7z m-1793 -6 c0 -3 -4 -8 -10 -11 -5 -3 -10 -1 -10 4 0 6 5 11 10 11 6
0 10 -2 10 -4z m-1760 -26 c0 -5 -4 -10 -9 -10 -6 0 -13 5 -16 10 -3 6 1 10 9
10 9 0 16 -4 16 -10z m1635 -10 c-3 -5 -10 -10 -16 -10 -5 0 -9 5 -9 10 0 6 7
10 16 10 8 0 12 -4 9 -10z m-3105 -29 c0 -5 -9 -11 -20 -14 -13 -3 -20 0 -20
9 0 8 9 14 20 14 11 0 20 -4 20 -9z m3250 -1 c0 -5 -5 -10 -11 -10 -5 0 -7 5
-4 10 3 6 8 10 11 10 2 0 4 -4 4 -10z m-240 -25 c0 -8 -4 -15 -10 -15 -5 0
-10 7 -10 15 0 8 5 15 10 15 6 0 10 -7 10 -15z m-3083 -15 c10 -11 25 -20 34
-20 9 0 24 -9 34 -20 18 -20 17 -20 -12 -20 -18 0 -33 -6 -37 -15 -6 -17 -56
-21 -56 -4 0 6 9 13 20 16 11 3 20 7 20 10 0 3 -9 16 -20 30 -33 42 -17 63 17
23z m240 14 c-3 -3 -12 -4 -19 -1 -8 3 -5 6 6 6 11 1 17 -2 13 -5z m2958 -14
c3 -6 -4 -14 -17 -19 -27 -10 -33 -7 -25 14 7 17 33 20 42 5z m105 -4 c0 -18
-17 -29 -30 -21 -8 5 -7 11 1 21 15 18 29 18 29 0z m-3374 -53 c-10 -10 -19 5
-10 18 6 11 8 11 12 0 2 -7 1 -15 -2 -18z m467 20 c-7 -2 -19 -2 -25 0 -7 3
-2 5 12 5 14 0 19 -2 13 -5z m2822 -3 c3 -5 12 -7 19 -4 16 6 31 -12 17 -21
-16 -9 -61 6 -61 21 0 16 16 19 25 4z m-65 -29 c0 -5 -9 -7 -20 -4 -13 3 -22
-1 -26 -12 -5 -13 -9 -14 -15 -4 -4 7 -5 17 -3 21 7 11 64 10 64 -1z m40 -30
c0 -5 -7 -12 -16 -15 -22 -9 -24 -8 -24 9 0 8 9 15 20 15 11 0 20 -4 20 -9z
m117 -3 c-2 -7 2 -21 10 -30 11 -13 13 -24 6 -45 -11 -31 -30 -33 -25 -3 2 13
-4 19 -20 22 -12 2 -24 11 -26 20 -3 13 1 16 13 12 11 -5 18 0 22 15 3 11 10
21 15 21 5 0 8 -6 5 -12z m-3397 -7 c0 -5 -7 -12 -16 -15 -22 -9 -24 -8 -24 9
0 8 9 15 20 15 11 0 20 -4 20 -9z m3315 -91 c-3 -5 -10 -10 -16 -10 -5 0 -9 5
-9 10 0 6 7 10 16 10 8 0 12 -4 9 -10z m1645 6 c0 -11 -19 -15 -25 -6 -3 5 1
10 9 10 9 0 16 -2 16 -4z m-1720 -16 c0 -5 -2 -10 -4 -10 -3 0 -8 5 -11 10 -3
6 -1 10 4 10 6 0 11 -4 11 -10z m1184 -63 c-5 -27 -4 -29 12 -22 29 12 107 6
123 -10 18 -18 7 -32 -13 -16 -11 9 -15 7 -19 -8 -4 -17 -11 -19 -47 -15 -39
5 -42 3 -37 -15 4 -16 -2 -21 -34 -26 -42 -7 -79 1 -79 16 0 6 4 8 8 5 12 -7
52 22 52 38 0 19 -130 -7 -142 -28 -12 -21 -30 -20 -58 4 -26 23 -26 23 17 38
25 8 34 8 44 -4 10 -13 14 -13 29 1 9 8 20 12 24 8 4 -4 12 0 17 10 6 9 16 17
23 17 8 0 16 7 20 15 3 8 12 15 21 15 8 0 15 7 15 16 0 14 3 14 15 4 11 -9 14
-22 9 -43z m536 44 c0 -12 -29 -23 -41 -15 -5 3 -7 10 -4 15 8 12 45 12 45 0z
m-1650 -21 c0 -5 -4 -10 -10 -10 -5 0 -10 5 -10 10 0 6 5 10 10 10 6 0 10 -4
10 -10z m1635 -31 c0 -7 -8 -15 -17 -17 -18 -3 -25 18 -11 32 10 10 28 1 28
-15z m-281 -43 c-17 -28 -54 -41 -54 -21 0 17 49 57 61 49 5 -3 2 -16 -7 -28z
m-614 -36 c0 -5 -9 -10 -20 -10 -11 0 -20 5 -20 10 0 6 9 10 20 10 11 0 20 -4
20 -10z m-2260 -14 c0 -11 -19 -15 -25 -6 -3 5 1 10 9 10 9 0 16 -2 16 -4z
m2785 -30 c17 -4 40 -8 53 -8 12 0 22 -5 22 -10 0 -7 -16 -8 -42 -4 -24 4 -62
10 -85 13 -24 3 -43 9 -43 14 0 9 53 17 60 8 3 -3 19 -9 35 -13z m-235 -6 c0
-5 -2 -10 -4 -10 -3 0 -8 5 -11 10 -3 6 -1 10 4 10 6 0 11 -4 11 -10z m-1096
-19 c3 -5 -3 -11 -14 -14 -22 -6 -37 8 -18 16 20 8 26 8 32 -2z m1332 -37 c-9
-9 -27 -14 -43 -12 -28 4 -28 4 7 15 49 16 54 15 36 -3z m-888 -46 c-7 -19
-38 -22 -38 -4 0 10 9 16 21 16 12 0 19 -5 17 -12z m-58 -28 c0 -5 -6 -10 -14
-10 -17 0 -31 -33 -17 -38 25 -8 8 -18 -24 -14 -28 3 -35 9 -35 26 0 12 5 27
12 34 14 14 78 16 78 2z m-2353 -37 c-3 -3 -11 -2 -17 2 -8 5 -7 11 2 22 12
15 13 14 16 -1 2 -10 1 -20 -1 -23z m2458 27 c4 -6 -6 -10 -22 -10 -22 0 -25
2 -13 10 19 12 27 12 35 0z m-2375 -20 c0 -5 -4 -10 -10 -10 -5 0 -10 5 -10
10 0 6 5 10 10 10 6 0 10 -4 10 -10z m1950 -9 c0 -5 -7 -11 -15 -15 -9 -3 -15
0 -15 9 0 8 7 15 15 15 8 0 15 -4 15 -9z m285 -81 c0 -8 -7 -16 -15 -17 -22
-4 -44 13 -35 26 10 17 50 9 50 -9z"/>
<path d="M3500 7045 c0 -9 6 -12 15 -9 8 4 15 10 15 15 0 5 -7 9 -15 9 -8 0
-15 -7 -15 -15z"/>
<path d="M3520 6855 c0 -25 5 -45 10 -45 6 0 10 20 10 45 0 25 -4 45 -10 45
-5 0 -10 -20 -10 -45z"/>
<path d="M4070 6823 c0 -21 -3 -49 -5 -63 -5 -22 -4 -22 4 -5 30 64 37 105 16
105 -11 0 -15 -11 -15 -37z"/>
<path d="M4462 6778 c-15 -18 -26 -68 -15 -68 10 0 38 69 30 76 -2 2 -9 -1
-15 -8z"/>
<path d="M4245 6707 c-4 -10 -5 -21 -1 -24 10 -10 18 4 13 24 -4 17 -4 17 -12
0z"/>
<path d="M3700 6679 c0 -5 5 -7 10 -4 6 3 10 8 10 11 0 2 -4 4 -10 4 -5 0 -10
-5 -10 -11z"/>
<path d="M3540 6670 c-13 -8 -12 -10 3 -10 9 0 17 5 17 10 0 12 -1 12 -20 0z"/>
<path d="M5247 6523 c-20 -36 -37 -69 -37 -74 0 -13 17 -11 24 4 3 6 15 26 26
42 43 67 50 83 37 88 -8 3 -28 -21 -50 -60z"/>
<path d="M5187 6412 c-19 -20 -23 -37 -7 -27 10 6 33 45 27 45 -2 0 -11 -8
-20 -18z"/>
<path d="M4808 6403 c6 -2 18 -2 25 0 6 3 1 5 -13 5 -14 0 -19 -2 -12 -5z"/>
<path d="M3978 6043 c7 -3 16 -2 19 1 4 3 -2 6 -13 5 -11 0 -14 -3 -6 -6z"/>
<path d="M3730 5830 c0 -13 50 -70 62 -70 4 0 8 9 8 20 0 11 -4 20 -10 20 -5
0 -10 9 -10 20 0 15 -7 20 -25 20 -14 0 -25 -5 -25 -10z"/>
<path d="M3933 5825 c-3 -9 -4 -18 -1 -20 3 -4 34 -11 59 -14 3 -1 5 -11 5
-23 -1 -18 5 -24 29 -26 29 -4 29 -3 12 15 -9 11 -17 25 -17 31 0 7 -7 12 -15
12 -8 0 -19 9 -25 20 -13 24 -38 26 -47 5z"/>
<path d="M4390 5730 c0 -5 9 -10 20 -10 11 0 20 5 20 10 0 6 -9 10 -20 10 -11
0 -20 -4 -20 -10z"/>
<path d="M3233 5723 c-21 -8 -15 -20 9 -19 12 0 23 7 26 14 4 12 -12 15 -35 5z"/>
<path d="M3040 5639 c-10 -18 -9 -20 7 -17 10 2 19 11 21 21 5 24 -15 21 -28
-4z"/>
<path d="M3305 5620 c-3 -5 -1 -10 4 -10 6 0 11 5 11 10 0 6 -2 10 -4 10 -3 0
-8 -4 -11 -10z"/>
<path d="M3247 5585 c-8 -18 11 -31 25 -17 11 11 3 32 -12 32 -4 0 -10 -7 -13
-15z"/>
<path d="M3205 5570 c-3 -5 -1 -10 4 -10 6 0 11 5 11 10 0 6 -2 10 -4 10 -3 0
-8 -4 -11 -10z"/>
<path d="M3676 5508 c-3 -7 -9 -28 -15 -47 -9 -29 -8 -36 7 -47 33 -26 59 -11
27 16 -8 7 -15 19 -15 27 0 7 7 16 15 19 20 8 19 44 0 44 -9 0 -17 -6 -19 -12z"/>
<path d="M2886 5484 c-3 -9 -6 -26 -6 -38 0 -12 -7 -31 -15 -43 -13 -19 -13
-22 0 -27 17 -6 20 -51 5 -61 -16 -10 -12 -25 5 -19 8 4 13 10 10 14 -3 4 2
11 11 14 12 5 14 9 5 20 -8 10 -8 16 4 26 11 9 12 17 4 32 -6 11 -8 37 -4 59
7 39 -7 55 -19 23z"/>
<path d="M2815 5403 c-16 -26 -40 -65 -53 -88 -12 -22 -32 -45 -44 -50 -13 -6
-28 -20 -34 -32 -6 -12 -23 -32 -37 -43 -26 -21 -38 -70 -17 -70 6 0 10 -7 10
-15 0 -8 5 -15 10 -15 6 0 10 11 10 25 0 22 33 65 50 65 4 0 13 12 20 28 7 15
15 22 17 14 3 -6 9 -10 13 -7 5 3 7 12 3 20 -3 8 0 15 6 15 7 0 18 15 26 33 8
17 14 28 15 22 0 -5 7 0 15 12 9 12 15 35 14 50 -1 15 2 40 6 56 10 37 5 34
-30 -20z"/>
<path d="M5388 5413 c7 -3 16 -2 19 1 4 3 -2 6 -13 5 -11 0 -14 -3 -6 -6z"/>
<path d="M3805 5390 c3 -5 10 -10 16 -10 5 0 9 5 9 10 0 6 -7 10 -16 10 -8 0
-12 -4 -9 -10z"/>
<path d="M3803 5324 c-4 -12 5 -41 23 -72 1 -2 12 1 23 8 26 13 27 41 3 63
-23 21 -41 22 -49 1z"/>
<path d="M5522 5273 c2 -10 10 -18 18 -18 22 0 18 29 -3 33 -14 3 -18 -1 -15
-15z"/>
<path d="M3769 5249 c-11 -6 -11 -11 -1 -21 10 -10 15 -9 28 4 13 13 13 16 1
21 -7 3 -20 1 -28 -4z"/>
<path d="M3120 5219 c0 -5 5 -7 10 -4 6 3 10 8 10 11 0 2 -4 4 -10 4 -5 0 -10
-5 -10 -11z"/>
<path d="M2451 5183 c-15 -16 -36 -26 -46 -25 -27 6 -65 -19 -65 -42 1 -25 27
-59 55 -70 11 -4 43 -10 70 -12 28 -2 60 -9 72 -15 31 -16 41 -4 18 21 -12 13
-31 20 -55 20 -20 0 -45 7 -56 15 -10 8 -29 15 -41 15 -13 0 -23 2 -23 5 0 9
64 64 80 70 8 2 21 14 28 25 18 30 -4 25 -37 -7z"/>
<path d="M2569 5175 c-13 -13 -29 -25 -35 -25 -16 0 -48 -39 -40 -47 4 -5 12
0 17 10 6 9 17 17 25 17 23 0 74 39 74 56 0 21 -15 17 -41 -11z"/>
<path d="M3110 5169 c0 -11 5 -17 10 -14 6 3 10 13 10 21 0 8 -4 14 -10 14 -5
0 -10 -9 -10 -21z"/>
<path d="M3029 5164 c-10 -33 7 -60 27 -43 21 17 17 45 -6 46 -11 1 -21 0 -21
-3z"/>
<path d="M4042 5147 c2 -15 7 -28 13 -28 16 -1 16 16 0 36 -15 19 -15 19 -13
-8z"/>
<path d="M4095 5150 c-3 -5 1 -13 10 -16 22 -9 29 1 11 15 -10 8 -16 9 -21 1z"/>
<path d="M4180 5132 c0 -5 6 -16 13 -26 12 -16 14 -16 26 -2 11 14 11 16 -3
16 -9 0 -16 5 -16 10 0 6 -4 10 -10 10 -5 0 -10 -4 -10 -8z"/>
<path d="M4250 5114 c0 -14 -5 -34 -10 -44 -7 -13 -7 -21 0 -25 6 -3 14 4 19
17 l8 23 7 -23 c10 -31 26 -28 26 6 0 29 -24 72 -41 72 -5 0 -9 -12 -9 -26z"/>
<path d="M4116 5094 c-4 -9 -2 -22 2 -28 5 -6 12 -22 15 -36 4 -14 15 -31 27
-38 18 -11 20 -10 20 10 0 12 -6 38 -12 57 -18 50 -40 65 -52 35z"/>
<path d="M2922 5080 c-6 -10 -8 -21 -3 -24 5 -3 11 4 14 16 8 29 4 32 -11 8z"/>
<path d="M3080 5089 c0 -5 5 -7 10 -4 6 3 10 8 10 11 0 2 -4 4 -10 4 -5 0 -10
-5 -10 -11z"/>
<path d="M2288 5053 c6 -2 18 -2 25 0 6 3 1 5 -13 5 -14 0 -19 -2 -12 -5z"/>
<path d="M4277 5016 c-3 -8 -2 -18 3 -21 13 -8 24 15 12 27 -6 6 -11 4 -15 -6z"/>
<path d="M4210 5006 c0 -9 5 -16 10 -16 6 0 10 4 10 9 0 6 -4 13 -10 16 -5 3
-10 -1 -10 -9z"/>
<path d="M2503 4985 c-8 -22 6 -33 17 -15 13 20 12 30 0 30 -6 0 -13 -7 -17
-15z"/>
<path d="M3893 4980 c-9 -13 -10 -27 -4 -43 8 -19 15 -23 35 -20 15 3 26 1 26
-6 0 -19 27 -12 33 9 4 14 -1 25 -14 33 -10 6 -19 20 -19 29 0 25 -42 23 -57
-2z"/>
<path d="M2730 6895 c0 -28 12 -32 30 -10 14 16 6 35 -16 35 -8 0 -14 -10 -14
-25z"/>
<path d="M2786 6751 c-10 -15 6 -72 21 -78 21 -8 26 2 18 46 -6 38 -26 54 -39
32z"/>
<path d="M2352 6757 c-8 -9 -8 -20 2 -38 7 -13 32 -61 55 -106 40 -76 71 -106
71 -68 0 18 -96 211 -109 219 -5 3 -14 0 -19 -7z"/>
<path d="M5564 6260 c-82 -85 -97 -107 -88 -121 4 -7 19 2 41 23 55 53 134
157 123 163 -5 3 -39 -26 -76 -65z"/>
<path d="M1426 6111 c-10 -16 5 -41 26 -41 14 0 19 6 16 22 -3 24 -32 36 -42
19z"/>
<path d="M1564 5988 c-8 -13 51 -68 73 -68 7 0 13 11 13 24 0 40 -67 75 -86
44z"/>
<path d="M5894 6049 c-3 -6 0 -17 8 -25 13 -13 16 -13 27 0 7 8 10 20 6 26 -8
13 -32 13 -41 -1z"/>
<path d="M5756 5929 c-29 -23 -35 -49 -11 -49 25 0 74 41 68 56 -7 20 -26 17
-57 -7z"/>
<path d="M6135 3340 c-3 -5 1 -10 9 -10 9 0 16 5 16 10 0 6 -4 10 -9 10 -6 0
-13 -4 -16 -10z"/>
<path d="M6165 3299 c-4 -6 -5 -13 -2 -16 7 -7 27 6 27 18 0 12 -17 12 -25 -2z"/>
<path d="M5020 2801 c0 -13 37 -23 67 -18 38 6 38 17 0 17 -19 0 -42 3 -51 6
-9 3 -16 1 -16 -5z"/>
<path d="M4120 2769 c0 -5 5 -7 10 -4 6 3 10 8 10 11 0 2 -4 4 -10 4 -5 0 -10
-5 -10 -11z"/>
<path d="M4235 2770 c-3 -5 1 -10 9 -10 9 0 16 5 16 10 0 6 -4 10 -9 10 -6 0
-13 -4 -16 -10z"/>
<path d="M4183 2736 c-6 -8 -9 -17 -6 -20 7 -7 33 13 33 25 0 13 -13 10 -27
-5z"/>
<path d="M1650 2650 c-12 -8 -9 -10 13 -10 16 0 26 4 22 10 -8 12 -16 12 -35
0z"/>
<path d="M3586 3298 c-3 -7 -7 -40 -10 -73 -3 -33 -12 -103 -21 -155 -9 -55
-15 -144 -14 -210 3 -148 3 -185 1 -300 0 -52 -1 -117 -1 -143 0 -26 -5 -63
-11 -83 -19 -56 -14 -670 6 -749 4 -15 8 -46 9 -68 2 -23 5 -63 7 -89 1 -25 7
-50 12 -55 5 -4 7 -3 3 3 -3 5 -1 28 4 50 5 21 10 146 10 277 0 130 4 261 9
289 6 28 12 231 15 450 2 220 7 403 10 409 4 5 2 51 -4 102 -14 122 -16 198
-6 278 5 46 4 68 -4 73 -6 4 -13 1 -15 -6z"/>
<path d="M6155 3110 c-3 -6 1 -7 9 -4 18 7 21 14 7 14 -6 0 -13 -4 -16 -10z"/>
<path d="M6210 3089 c0 -5 5 -7 10 -4 6 3 10 8 10 11 0 2 -4 4 -10 4 -5 0 -10
-5 -10 -11z"/>
<path d="M5910 2976 c0 -18 27 -29 36 -14 4 5 0 14 -7 19 -20 13 -29 11 -29
-5z"/>
<path d="M6373 1996 c11 -23 13 -23 29 -9 26 23 22 33 -11 33 -27 0 -28 -2
-18 -24z"/>
<path d="M6170 1741 c-6 -12 -7 -21 -1 -21 10 0 24 30 17 37 -2 3 -9 -5 -16
-16z"/>
<path d="M6113 1712 c-17 -11 1 -36 21 -29 9 4 16 13 16 22 0 16 -17 20 -37 7z"/>
<path d="M6057 1635 c-4 -24 -3 -25 14 -9 10 9 16 21 13 25 -10 16 -22 9 -27
-16z"/>
<path d="M6020 1590 c0 -5 5 -10 10 -10 6 0 10 5 10 10 0 6 -4 10 -10 10 -5 0
-10 -4 -10 -10z"/>
<path d="M5980 1561 c0 -5 -7 -17 -16 -26 -9 -9 -14 -18 -12 -20 2 -3 17 9 33
25 23 24 25 30 12 30 -9 0 -17 -4 -17 -9z"/>
<path d="M5798 1553 c7 -3 16 -2 19 1 4 3 -2 6 -13 5 -11 0 -14 -3 -6 -6z"/>
<path d="M4930 1530 c0 -5 5 -10 10 -10 6 0 10 5 10 10 0 6 -4 10 -10 10 -5 0
-10 -4 -10 -10z"/>
<path d="M5923 1503 c-15 -5 -17 -23 -4 -23 5 0 11 7 15 15 3 8 4 15 3 14 -1
0 -8 -3 -14 -6z"/>
<path d="M3570 1255 c0 -14 -4 -25 -10 -25 -5 0 -10 -11 -10 -25 0 -26 -29
-95 -41 -95 -4 0 -10 -11 -13 -24 -3 -14 -19 -30 -36 -37 -16 -8 -35 -26 -41
-41 -7 -18 -16 -25 -26 -21 -9 4 -21 -1 -28 -10 -14 -19 -86 -47 -122 -47 -14
0 -37 -6 -51 -14 -57 -29 -104 -46 -127 -46 -13 0 -37 -5 -52 -11 -15 -6 -37
-15 -48 -20 -67 -26 -150 -49 -183 -49 -35 0 -122 27 -138 43 -4 4 -17 7 -28
7 -18 0 -147 43 -239 79 -40 16 -58 13 -22 -3 17 -7 46 -21 65 -29 19 -9 94
-35 165 -58 72 -23 139 -45 150 -50 11 -4 52 -15 90 -24 39 -9 86 -20 105 -25
19 -5 64 -14 100 -21 36 -6 88 -15 115 -20 125 -22 537 -48 616 -38 70 8 58
10 -81 14 -156 3 -319 13 -341 20 -10 3 -16 12 -13 19 3 7 -6 20 -19 29 -27
17 -43 12 -26 -9 14 -18 -22 -27 -71 -19 -36 6 -57 25 -28 25 6 0 9 2 6 5 -3
3 -17 0 -31 -6 -36 -16 -62 3 -44 32 7 11 15 15 21 9 5 -5 17 -3 30 6 18 11
28 11 54 2 32 -12 57 -4 33 11 -17 11 3 45 39 63 14 7 28 17 32 23 4 5 9 2 12
-8 4 -9 8 -24 11 -32 8 -26 35 -18 35 11 0 14 7 32 15 40 26 26 18 42 -17 38
l-33 -4 25 20 c15 13 36 19 53 17 19 -3 27 1 28 12 0 11 3 10 11 -5 5 -12 21
-27 35 -33 18 -8 22 -15 15 -24 -12 -14 -4 -67 9 -67 5 0 9 5 9 10 0 6 9 10
20 10 11 0 20 7 20 15 0 8 -5 15 -11 15 -5 0 -8 4 -5 9 3 5 15 7 26 4 24 -7
25 0 3 34 -13 20 -14 28 -5 31 7 2 10 8 6 13 -3 5 -1 9 4 9 16 0 22 -13 11
-26 -7 -9 -7 -19 1 -34 10 -18 17 -21 46 -15 25 4 34 3 32 -7 -2 -6 4 -12 12
-13 8 0 16 -10 18 -23 2 -15 9 -22 17 -18 8 3 15 0 17 -6 6 -18 41 -18 55 0
11 16 12 16 13 -1 0 -14 5 -17 21 -12 19 6 21 4 15 -18 -8 -33 8 -43 31 -20
19 18 89 28 131 18 25 -6 31 -42 7 -51 -9 -4 -15 -19 -15 -35 0 -31 9 -36 28
-17 9 9 12 8 12 -6 0 -14 -6 -17 -25 -14 -14 3 -25 1 -25 -3 0 -5 -16 -9 -35
-9 -26 0 -35 4 -35 17 0 9 -3 13 -7 9 -5 -4 -8 -13 -8 -19 0 -7 -16 -12 -37
-12 -20 -1 -41 -5 -45 -9 -8 -8 196 -2 282 7 87 10 300 49 395 72 36 9 77 19
93 22 15 3 30 9 33 14 3 5 14 9 24 9 25 0 214 63 218 73 2 4 12 7 22 7 21 0
115 38 109 44 -3 3 -151 -44 -209 -67 -8 -3 -37 -13 -65 -21 -27 -8 -80 -24
-117 -35 -69 -22 -143 -28 -152 -13 -3 5 -25 9 -48 10 -24 0 -77 13 -118 27
-41 15 -106 36 -145 46 -38 11 -89 28 -113 40 -24 11 -58 22 -75 25 -29 6
-101 38 -197 89 -37 20 -110 90 -110 106 0 5 -4 9 -10 9 -5 0 -10 8 -10 19 0
10 -7 24 -15 31 -9 8 -15 30 -15 56 0 32 -4 44 -15 44 -9 0 -15 -9 -15 -25z
m-35 -285 c3 -5 -1 -10 -10 -10 -9 0 -13 5 -10 10 3 6 8 10 10 10 2 0 7 -4 10
-10z m170 -31 c0 -9 -9 -13 -25 -11 -60 6 -70 28 -13 26 25 -1 38 -6 38 -15z
m-514 -116 c13 -15 12 -15 -8 -4 -24 12 -29 21 -14 21 5 0 15 -7 22 -17z m-51
-13 c0 -5 -2 -10 -4 -10 -3 0 -8 5 -11 10 -3 6 -1 10 4 10 6 0 11 -4 11 -10z
m-60 -44 c0 -16 -18 -31 -27 -22 -8 8 5 36 17 36 5 0 10 -6 10 -14z m-40 -17
c0 -5 -7 -9 -15 -9 -8 0 -15 7 -15 15 0 9 6 12 15 9 8 -4 15 -10 15 -15z
m1087 -25 c-3 -3 -12 -4 -19 -1 -8 3 -5 6 6 6 11 1 17 -2 13 -5z m13 -18 c0
-9 -30 -14 -35 -6 -4 6 3 10 14 10 12 0 21 -2 21 -4z"/>
<path d="M1811 1202 c42 -32 81 -54 85 -49 5 5 -91 67 -102 67 -4 0 4 -8 17
-18z"/>
<path d="M3502 1200 c0 -14 2 -19 5 -12 2 6 2 18 0 25 -3 6 -5 1 -5 -13z"/>
<path d="M5499 1180 l-24 -21 33 16 c31 15 41 25 23 25 -5 0 -19 -9 -32 -20z"/>
<path d="M5440 1144 c-17 -9 -20 -14 -9 -14 9 0 22 7 29 15 15 18 13 18 -20
-1z"/>
<path d="M1970 1108 c30 -18 58 -36 62 -42 4 -6 10 -7 14 -3 9 9 10 8 -58 46
-74 41 -89 40 -18 -1z"/>
<path d="M5338 1088 c-58 -32 -75 -54 -19 -24 17 9 45 23 61 32 29 15 38 24
23 24 -5 -1 -34 -15 -65 -32z"/>
<path d="M3330 1086 c0 -2 7 -9 15 -16 12 -10 15 -10 15 4 0 9 -7 16 -15 16
-8 0 -15 -2 -15 -4z"/>
<path d="M3230 1050 c0 -6 7 -13 15 -16 20 -8 65 4 65 16 0 6 -8 5 -20 -2 -15
-10 -22 -10 -32 0 -15 15 -28 16 -28 2z"/>
<path d="M2110 1031 c27 -22 40 -26 40 -12 0 5 -8 11 -17 15 -10 3 -25 9 -33
12 -8 3 -4 -4 10 -15z"/>
<path d="M3920 1036 c0 -10 9 -16 21 -16 24 0 21 23 -4 28 -10 2 -17 -3 -17
-12z"/>
<path d="M5206 1019 c-32 -17 -56 -32 -53 -35 7 -7 117 47 117 57 0 5 -1 9 -2
8 -2 -1 -29 -14 -62 -30z"/>
<path d="M2190 990 c0 -5 5 -10 10 -10 6 0 10 5 10 10 0 6 -4 10 -10 10 -5 0
-10 -4 -10 -10z"/>
<path d="M2225 970 c3 -5 8 -10 11 -10 2 0 4 5 4 10 0 6 -5 10 -11 10 -5 0 -7
-4 -4 -10z"/>
<path d="M5115 970 c3 -5 8 -10 11 -10 2 0 4 5 4 10 0 6 -5 10 -11 10 -5 0 -7
-4 -4 -10z"/>
<path d="M2255 960 c3 -5 11 -10 16 -10 6 0 7 5 4 10 -3 6 -11 10 -16 10 -6 0
-7 -4 -4 -10z"/>
<path d="M5045 941 c-22 -11 -33 -20 -25 -20 8 0 31 8 50 19 45 25 27 25 -25
1z"/>
<path d="M2295 940 c3 -5 11 -10 16 -10 6 0 7 5 4 10 -3 6 -11 10 -16 10 -6 0
-7 -4 -4 -10z"/>
<path d="M3597 873 c-12 -12 -7 -22 8 -17 8 4 15 10 15 15 0 11 -14 12 -23 2z"/>
<path d="M3640 859 c0 -5 5 -7 10 -4 6 3 10 8 10 11 0 2 -4 4 -10 4 -5 0 -10
-5 -10 -11z"/>
<path d="M3310 839 c0 -5 5 -7 10 -4 6 3 10 8 10 11 0 2 -4 4 -10 4 -5 0 -10
-5 -10 -11z"/>
<path d="M3630 825 c-17 -20 -8 -27 19 -17 19 7 21 10 8 20 -11 10 -17 9 -27
-3z"/>
<path d="M3275 820 c-3 -5 -1 -10 4 -10 6 0 11 5 11 10 0 6 -2 10 -4 10 -3 0
-8 -4 -11 -10z"/>
<path d="M3725 779 c0 -32 4 -43 14 -41 8 2 17 -2 20 -7 9 -14 53 -2 48 13 -2
6 -13 16 -25 22 -11 5 -29 21 -39 33 l-19 24 1 -44z"/>
<path d="M3308 793 c7 -3 16 -2 19 1 4 3 -2 6 -13 5 -11 0 -14 -3 -6 -6z"/>
<path d="M3681 793 c-1 -6 -4 -20 -7 -30 -5 -17 -5 -17 6 0 6 10 9 23 6 30 -3
9 -5 9 -5 0z"/>
<path d="M3952 774 c-10 -18 -4 -64 8 -64 5 0 6 9 3 20 -3 11 0 26 6 34 8 9 8
16 2 20 -5 4 -14 -1 -19 -10z"/>
<path d="M3496 735 c4 -8 12 -15 20 -15 19 0 18 16 -2 24 -22 9 -24 8 -18 -9z"/>
<path d="M3440 730 c0 -5 5 -10 10 -10 6 0 10 5 10 10 0 6 -4 10 -10 10 -5 0
-10 -4 -10 -10z"/>
<path d="M3620 720 c0 -5 9 -10 21 -10 11 0 17 5 14 10 -3 6 -13 10 -21 10 -8
0 -14 -4 -14 -10z"/>
<path d="M3756 692 c-3 -5 1 -9 9 -9 8 0 15 4 15 9 0 4 -4 8 -9 8 -6 0 -12 -4
-15 -8z"/>
</g>
</svg>
